<?xml version="1.0" standalone="no"?>
<!DOCTYPE svg PUBLIC "-//W3C//DTD SVG 1.1//EN" "http://www.w3.org/Graphics/SVG/1.1/DTD/svg11.dtd" >
<svg>
<metadata>
Created by FontForge 20090914 at Mon Aug 21 13:04:34 2017
 By www-data
Diwan Software Ltd. 1992-2003 all rights reserved.
</metadata>
<defs>
<font id="GeezaPro" horiz-adv-x="988" >
  <font-face 
    font-family="Geeza Pro"
    font-weight="400"
    font-stretch="normal"
    units-per-em="2048"
    panose-1="2 0 4 0 0 0 0 0 0 0"
    ascent="1638"
    descent="-410"
    bbox="-280 -941.003 2224 2388"
    underline-thickness="100"
    underline-position="-150"
    unicode-range="U+000D-U+FEFC"
  />
<missing-glyph horiz-adv-x="992" 
d="M142 226v1362h700v-1362h-700zM284 368h416v1079h-416v-1079z" />
    <glyph glyph-name="behmeemisolatedarabic" unicode="&#xfe91;&#xfee2;" horiz-adv-x="1314" arabic-form="isolated" 
d="M1314 373c0 -98 -13.6699 -147.002 -41.0029 -147.002h-573c-10.667 0 -27.167 0.333008 -49.5 1s-45.666 1.5 -69.999 2.5s-47.5 1.83301 -69.5 2.5s-38.667 1 -50 1c-221.333 0 -332.333 -18.333 -333 -55l8 -32c12 -44.667 23.333 -91.5 34 -140.5
s20 -96.833 28 -143.5s14.167 -90.334 18.5 -131.001s6.5 -75 6.5 -103c0 -61.333 -22.333 -130.666 -67 -207.999c-9.33301 102 -21.333 197.833 -36 287.5s-32 173.834 -52 252.501c-13.333 54 -23.666 99.667 -30.999 137s-11 66.666 -11 87.999c0 75.333 23 126 69 152
c26 14.667 84.333 28.334 175 41.001c80 12 137.333 18 172 18c12.667 0 22 -1 28 -3l-143 160l-186 -97l2 61c0.666992 19.333 31.667 59 93 119s102.333 90 123 90c29.333 0 76 -41.333 140 -124l55.5 -71c15.667 -19.333 28.834 -34.666 39.501 -45.999
c16.667 -17.333 34 -34 52 -50s37.333 -31.333 58 -46h481c9.33301 0 14 7.66699 14 23c0 10.667 -3.5 26.667 -10.5 48s-15.667 42.5 -26 63.5s-21.166 39.5 -32.499 55.5s-21 24 -29 24l75 177c33.333 -14.667 65.666 -75.667 96.999 -183c27.333 -95.333 41 -170 41 -224
zM1124 -153.002l-78 -141l-190 107l73 136z" />
    <glyph glyph-name="tehjeemisolatedarabic" unicode="&#xfe97;&#xfe9e;" horiz-adv-x="1534" arabic-form="isolated" 
d="M1536 373c0 -98 -13.332 -146.994 -39.999 -146.994h-806c-98.667 0 -148 78.333 -148 235c0 27.333 1.66699 46 5 56c-126 -10.667 -232.333 -64 -319 -160c-86 -94.667 -129 -206 -129 -334c0 -232.667 162 -349 486 -349c19.333 0 46 1.33301 80 4s76 6.66699 126 12
c108 12 169 23.333 183 34c-48.667 -64 -128 -118.333 -238 -163c-100 -40.667 -195.333 -61 -286 -61c-64 0 -122 11.833 -174 35.5s-96.167 57 -132.5 100s-64.333 94.5 -84 154.5s-29.5 126.667 -29.5 200c0 163.333 71.667 348.666 215 555.999
c-18.667 10.667 -39 16 -61 16c-47.333 0 -104 -33.333 -170 -100c33.333 103.333 58 165.333 74 186c36 48.667 96.667 73 182 73c13.333 0 33.666 -1.83301 60.999 -5.5s55.833 -7.83398 85.5 -12.501s58.167 -8.83398 85.5 -12.501s47.666 -5.5 60.999 -5.5
c92 0 182.333 16 271 48l-76 -196l-148 -16c-0.666992 -4.66699 -1 -9.33398 -1 -14.001v-12c0 -20 3 -36.833 9 -50.5s16.333 -24.5 31 -32.5s34.167 -13.833 58.5 -17.5s54.833 -5.5 91.5 -5.5h606c9.33301 0 14 7.66699 14 23c0 10 -3.5 25.5 -10.5 46.5
s-15.667 42.167 -26 63.5s-21.166 40.166 -32.499 56.499s-21 24.5 -29 24.5l76 177c35.333 -16 68.333 -77 99 -183c26.667 -90.667 40 -165.334 40 -224.001zM628.001 18.0059l-82 -143l-197 128l86 136zM1512 1138.01l-71 -120l-177 105l71 115zM1090 1226.01l174 -103
l-71 -116l-176 102z" />
    <glyph glyph-name="tehhahisolatedarabic" unicode="&#xfe97;&#xfea2;" horiz-adv-x="1546" arabic-form="isolated" 
d="M1536 373c0 -98 -13.332 -146.994 -39.999 -146.994h-806c-98.667 0 -148 78.333 -148 235c0 27.333 1.66699 46 5 56c-126 -10.667 -232.333 -64 -319 -160c-86 -94.667 -129 -206 -129 -334c0 -232.667 162 -349 486 -349c19.333 0 46 1.33301 80 4s76 6.66699 126 12
c108 12 169 23.333 183 34c-48.667 -64 -128 -118.333 -238 -163c-100 -40.667 -195.333 -61 -286 -61c-64 0 -122 11.833 -174 35.5s-96.167 57 -132.5 100s-64.333 94.5 -84 154.5s-29.5 126.667 -29.5 200c0 163.333 71.667 348.666 215 555.999
c-18.667 10.667 -39 16 -61 16c-47.333 0 -104 -33.333 -170 -100c33.333 103.333 58 165.333 74 186c36 48.667 96.667 73 182 73c13.333 0 33.666 -1.83301 60.999 -5.5s55.833 -7.83398 85.5 -12.501s58.167 -8.83398 85.5 -12.501s47.666 -5.5 60.999 -5.5
c92 0 182.333 16 271 48l-76 -196l-148 -16c-0.666992 -4.66699 -1 -9.33398 -1 -14.001v-12c0 -20 3 -36.833 9 -50.5s16.333 -24.5 31 -32.5s34.167 -13.833 58.5 -17.5s54.833 -5.5 91.5 -5.5h606c9.33301 0 14 7.66699 14 23c0 10 -3.5 25.5 -10.5 46.5
s-15.667 42.167 -26 63.5s-21.166 40.166 -32.499 56.499s-21 24.5 -29 24.5l76 177c35.333 -16 68.333 -77 99 -183c26.667 -90.667 40 -165.334 40 -224.001zM1441 1018.01l-177 105l71 115l177 -100zM1017 1109.01l73 117l174 -103l-71 -116z" />
    <glyph glyph-name="tehmeemisolatedarabic" unicode="&#xfe97;&#xfee2;" horiz-adv-x="1314" arabic-form="isolated" 
d="M1314 373c0 -98 -13.6699 -147.002 -41.0029 -147.002h-573c-10.667 0 -27.167 0.333008 -49.5 1s-45.666 1.5 -69.999 2.5s-47.5 1.83301 -69.5 2.5s-38.667 1 -50 1c-221.333 0 -332.333 -18.333 -333 -55l8 -32c12 -44.667 23.333 -91.5 34 -140.5
s20 -96.833 28 -143.5s14.167 -90.334 18.5 -131.001s6.5 -75 6.5 -103c0 -61.333 -22.333 -130.666 -67 -207.999c-9.33301 102 -21.333 197.833 -36 287.5s-32 173.834 -52 252.501c-13.333 54 -23.666 99.667 -30.999 137s-11 66.666 -11 87.999c0 75.333 23 126 69 152
c26 14.667 84.333 28.334 175 41.001c80 12 137.333 18 172 18c12.667 0 22 -1 28 -3l-143 160l-186 -97l2 61c0.666992 19.333 31.667 59 93 119s102.333 90 123 90c29.333 0 76 -41.333 140 -124l55.5 -71c15.667 -19.333 28.834 -34.666 39.501 -45.999
c16.667 -17.333 34 -34 52 -50s37.333 -31.333 58 -46h481c9.33301 0 14 7.66699 14 23c0 10.667 -3.5 26.667 -10.5 48s-15.667 42.5 -26 63.5s-21.166 39.5 -32.499 55.5s-21 24 -29 24l75 177c33.333 -14.667 65.666 -75.667 96.999 -183c27.333 -95.333 41 -170 41 -224
zM1221 1018l-177 104l71 116l176 -100zM794.997 1109l72 117l177 -104l-70 -115z" />
    <glyph glyph-name="meemmeemisolatedarabic" unicode="&#xfee3;&#xfee2;" horiz-adv-x="1575" arabic-form="isolated" 
d="M1578 349c0 -91.333 -46.0039 -137.003 -138.004 -137.003c-42.667 0 -102 11.667 -178 35c-84 26.667 -133.667 53.667 -149 81c-22.667 -68 -92.334 -102 -209.001 -102h-204c-10.667 0 -27.167 0.333008 -49.5 1s-45.666 1.5 -69.999 2.5s-47.5 1.83301 -69.5 2.5
s-38.667 1 -50 1c-221.333 0 -332.333 -18.333 -333 -55l10 -36l5.5 -22.5l9.5 -40l9.5 -41.5c3 -13.333 4.83301 -22 5.5 -26c36.667 -157.333 55 -285.333 55 -384c0 -61.333 -22.333 -130.666 -67 -207.999c-9.33301 102 -21.333 197.833 -36 287.5
s-32 173.834 -52 252.501c-13.333 54 -23.666 99.667 -30.999 137s-11 66.666 -11 87.999c0 75.333 23 126 69 152c26 14.667 84.333 28.334 175 41.001c80 12 137.333 18 172 18c12.667 0 22 -1 28 -3l-143 160l-186 -97l2 61c0.666992 19.333 31.667 59 93 119
s102.333 90 123 90c29.333 0 76 -41.333 140 -124l55.5 -71c15.667 -19.333 28.834 -34.666 39.501 -45.999c16.667 -17.333 34 -34 52 -50s37.333 -31.333 58 -46h186c50.667 0 92.334 1.83301 125.001 5.5s53.334 8.5 62.001 14.5c11.333 8.66699 29 42.667 53 102
c16.667 42 32.667 77.333 48 106s30.833 52 46.5 70s32.167 30.833 49.5 38.5s36 11.5 56 11.5c63.333 0 122 -50 176 -150c48 -86.667 72 -166 72 -238zM1471 409.997c0 18 -4.83203 37.5 -14.499 58.5s-21.834 40.5 -36.501 58.5s-30.834 33 -48.501 45s-34.5 18 -50.5 18
c-10 0 -22.5 -4.66699 -37.5 -14s-29.667 -20.5 -44 -33.5s-26.666 -26.833 -36.999 -41.5s-15.5 -27 -15.5 -37c0 -5.33301 4.16699 -11.333 12.5 -18s19.333 -13.5 33 -20.5s28.667 -14 45 -21s32.5 -13 48.5 -18s30.833 -9.16699 44.5 -12.5s24.5 -5 32.5 -5
c45.333 0 68 13.667 68 41z" />
    <glyph glyph-name="noonjeemisolatedarabic" unicode="&#xfee7;&#xfe9e;" horiz-adv-x="1534" arabic-form="isolated" 
d="M1525 373c0 -98 -13.667 -146.995 -41 -146.995h-794c-98.667 0 -148 78.333 -148 235c0 27.333 1.66699 46 5 56c-126 -10.667 -232.333 -64 -319 -160c-86 -94.667 -129 -206 -129 -334c0 -232.667 162 -349 486 -349c19.333 0 46 1.33301 80 4s76 6.66699 126 12
c108 12 169 23.333 183 34c-48.667 -64 -128 -118.333 -238 -163c-101.333 -40.667 -196.666 -61 -285.999 -61c-64 0 -122 11.833 -174 35.5s-96.167 57 -132.5 100s-64.333 94.5 -84 154.5s-29.5 126.667 -29.5 200c0 163.333 71.667 348.666 215 555.999
c-18.667 10.667 -39 16 -61 16c-47.333 0 -104 -33.333 -170 -100c33.333 103.333 58 165.333 74 186c36 48.667 96.667 73 182 73c13.333 0 33.666 -1.83301 60.999 -5.5s55.833 -7.83398 85.5 -12.501s58.167 -8.83398 85.5 -12.501s47.666 -5.5 60.999 -5.5
c92 0 182.333 16 271 48l-76 -196l-148 -16c-0.666992 -4.66699 -1 -9.33398 -1 -14.001v-12c0 -20 3 -36.833 9 -50.5s16.333 -24.5 31 -32.5s34.167 -13.833 58.5 -17.5s54.833 -5.5 91.5 -5.5h594c11.333 0 17 8.66699 17 26c0 8.66699 -3.66699 23.334 -11 44.001
s-16.166 41.667 -26.499 63s-21 40.166 -32 56.499s-20.5 24.5 -28.5 24.5l74 177c35.333 -14.667 68.333 -75.667 99 -183c26.667 -90.667 40 -165.334 40 -224.001zM628 18.0049l-82 -143l-197 128l86 136zM1408 1141l-73 -134l-193 109l73 136z" />
    <glyph glyph-name="noonmeemisolatedarabic" unicode="&#xfee7;&#xfee2;" horiz-adv-x="1314" arabic-form="isolated" 
d="M1319 373c0 -98 -13.0039 -147.002 -39.0039 -147.002h-580c-10.667 0 -27.167 0.333008 -49.5 1s-45.666 1.5 -69.999 2.5s-47.5 1.83301 -69.5 2.5s-38.667 1 -50 1c-221.333 0 -332.333 -18.333 -333 -55l8 -32c12 -44.667 23.333 -91.5 34 -140.5
s20 -96.833 28 -143.5s14.167 -90.334 18.5 -131.001s6.5 -75 6.5 -103c0 -61.333 -22.333 -130.666 -67 -207.999c-9.33301 102 -21.333 197.833 -36 287.5s-32 173.834 -52 252.501c-13.333 54 -23.666 99.667 -30.999 137s-11 66.666 -11 87.999c0 75.333 23 126 69 152
c26 14.667 84.333 28.334 175 41.001c80 12 137.333 18 172 18c12.667 0 22 -1 28 -3l-143 160l-186 -97l2 61c0.666992 19.333 31.667 59 93 119s102.333 90 123 90c29.333 0 76 -41.333 140 -124l55.5 -71c15.667 -19.333 28.834 -34.666 39.501 -45.999
c16.667 -17.333 34 -34 52 -50s37.333 -31.333 58 -46h485c9.33301 0 14 7.66699 14 23c0 10.667 -3.5 26.667 -10.5 48s-15.667 42.5 -26 63.5s-21.166 39.5 -32.499 55.5s-21 24 -29 24l76 177c34 -14.667 66.667 -75.667 98 -183c26.667 -92 40 -166.667 40 -224z
M1200 1141l-72 -134l-192 109l71 136z" />
    <glyph glyph-name="yehmeemisolatedarabic" unicode="&#xfef3;&#xfee2;" horiz-adv-x="1314" arabic-form="isolated" 
d="M1319 373c0 -98 -13.0039 -147.002 -39.0039 -147.002h-580c-10.667 0 -27.167 0.333008 -49.5 1s-45.666 1.5 -69.999 2.5s-47.5 1.83301 -69.5 2.5s-38.667 1 -50 1c-221.333 0 -332.333 -18.333 -333 -55l8 -32c12 -44.667 23.333 -91.5 34 -140.5
s20 -96.833 28 -143.5s14.167 -90.334 18.5 -131.001s6.5 -75 6.5 -103c0 -61.333 -22.333 -130.666 -67 -207.999c-9.33301 102 -21.333 197.833 -36 287.5s-32 173.834 -52 252.501c-13.333 54 -23.666 99.667 -30.999 137s-11 66.666 -11 87.999c0 75.333 23 126 69 152
c26 14.667 84.333 28.334 175 41.001c80 12 137.333 18 172 18c12.667 0 22 -1 28 -3l-143 160l-186 -97l2 61c0.666992 19.333 31.667 59 93 119s102.333 90 123 90c29.333 0 76 -41.333 140 -124l55.5 -71c15.667 -19.333 28.834 -34.666 39.501 -45.999
c16.667 -17.333 34 -34 52 -50s37.333 -31.333 58 -46h485c9.33301 0 14 7.66699 14 23c0 10.667 -3.5 26.667 -10.5 48s-15.667 42.5 -26 63.5s-21.166 39.5 -32.499 55.5s-21 24 -29 24l76 177c34 -14.667 66.667 -75.667 98 -183c26.667 -92 40 -166.667 40 -224z
M790.996 -194.002l69 125l172 -108l-68 -121zM1200 -283.002l-168 106l65 115l170 -102z" />
    <glyph glyph-name="behnoonfinalarabic" unicode="&#xfe92;&#xfee6;" horiz-adv-x="1364" arabic-form="final" 
d="M1503 226c-121.333 -2 -186.331 -3.00391 -194.998 -3.00391c-85.333 0 -133 28.333 -143 85c-12 66.667 -25.667 124.5 -41 173.5s-33.666 90.167 -54.999 123.5c-0.666992 -5.33301 -2.83398 -13 -6.50098 -23s-9.16699 -22.667 -16.5 -38
c-32 -66.667 -83 -103.667 -153 -111c5.33301 -25.333 8 -50.333 8 -75c0 -28.667 -15.667 -75 -47 -139c-14.667 -30 -28.834 -55.333 -42.501 -76s-26.167 -37 -37.5 -49c-26.667 -27.333 -56.334 -51.666 -89.001 -72.999s-68 -40.333 -106 -57
c-78 -34.667 -154.333 -52 -229 -52c-48.667 0 -94.167 9.5 -136.5 28.5s-79 44.833 -110 77.5s-55.333 70.834 -73 114.501s-26.5 89.834 -26.5 138.501c0 32.667 4.33301 67.667 13 105s20.167 73.5 34.5 108.5s31 67.5 50 97.5s38.833 54.333 59.5 73
c-18.667 -22 -34.334 -67.667 -47.001 -137c-10.667 -59.333 -16 -109.666 -16 -150.999c0 -186.667 80 -280 240 -280c83.333 0 177.333 22.667 282 68c122 53.333 183 116 183 188c-0.666992 18.667 -3.66699 38.167 -9 58.5s-14.666 41.166 -27.999 62.499l-66 111
l65 158l24 -33.5c10.667 -15 22 -30 34 -45s24.333 -28.167 37 -39.5s23.667 -17 33 -17s22 3.33301 38 10s31.5 15 46.5 25s28 20.833 39 32.5s16.5 22.5 16.5 32.5c0 15.333 -4.33301 28.333 -13 39l53 156c0 -2.66699 4.66699 -13.334 14 -32.001
c18 -35.333 36.5 -87.666 55.5 -156.999s37.833 -156.666 56.5 -261.999c6 -32 51 -49.667 135 -53h169v-163zM1153 -157.004l-74 -143l-193 113l74 143zM511.002 961.996l-77 -138l-189 103l75 137z" />
    <glyph glyph-name="tehnoonfinalarabic" unicode="&#xfe98;&#xfee6;" horiz-adv-x="1364" arabic-form="final" 
d="M1503 226c-121.333 -2 -186.331 -3.00391 -194.998 -3.00391c-85.333 0 -133 28.333 -143 85c-12 66.667 -25.667 124.5 -41 173.5s-33.666 90.167 -54.999 123.5c-0.666992 -5.33301 -2.83398 -13 -6.50098 -23s-9.16699 -22.667 -16.5 -38
c-32 -66.667 -83 -103.667 -153 -111c5.33301 -25.333 8 -50.333 8 -75c0 -28.667 -15.667 -75 -47 -139c-14.667 -30 -28.834 -55.333 -42.501 -76s-26.167 -37 -37.5 -49c-26.667 -27.333 -56.334 -51.666 -89.001 -72.999s-68 -40.333 -106 -57
c-78 -34.667 -154.333 -52 -229 -52c-48.667 0 -94.167 9.5 -136.5 28.5s-79 44.833 -110 77.5s-55.333 70.834 -73 114.501s-26.5 89.834 -26.5 138.501c0 32.667 4.33301 67.667 13 105s20.167 73.5 34.5 108.5s31 67.5 50 97.5s38.833 54.333 59.5 73
c-18.667 -22 -34.334 -67.667 -47.001 -137c-10.667 -59.333 -16 -109.666 -16 -150.999c0 -186.667 80 -280 240 -280c83.333 0 177.333 22.667 282 68c122 53.333 183 116 183 188c-0.666992 18.667 -3.66699 38.167 -9 58.5s-14.666 41.166 -27.999 62.499l-66 111
l65 158l24 -33.5c10.667 -15 22 -30 34 -45s24.333 -28.167 37 -39.5s23.667 -17 33 -17s22 3.33301 38 10s31.5 15 46.5 25s28 20.833 39 32.5s16.5 22.5 16.5 32.5c0 15.333 -4.33301 28.333 -13 39l53 156c0 -2.66699 4.66699 -13.334 14 -32.001
c18 -35.333 36.5 -87.666 55.5 -156.999s37.833 -156.666 56.5 -261.999c6 -32 51 -49.667 135 -53h169v-163zM511.002 961.996l-77 -138l-189 103l75 137zM756.002 1190l73 119l175 -103l-71 -118zM1181 1102l-177 104l70 117l176 -101z" />
    <glyph glyph-name="noonnoonfinalarabic" unicode="&#xfee8;&#xfee6;" horiz-adv-x="1364" arabic-form="final" 
d="M1503 226c-121.333 -2 -186.331 -3.00391 -194.998 -3.00391c-85.333 0 -133 28.333 -143 85c-12 66.667 -25.667 124.5 -41 173.5s-33.666 90.167 -54.999 123.5c-0.666992 -5.33301 -2.83398 -13 -6.50098 -23s-9.16699 -22.667 -16.5 -38
c-32 -66.667 -83 -103.667 -153 -111c5.33301 -25.333 8 -50.333 8 -75c0 -28.667 -15.667 -75 -47 -139c-14.667 -30 -28.834 -55.333 -42.501 -76s-26.167 -37 -37.5 -49c-26.667 -27.333 -56.334 -51.666 -89.001 -72.999s-68 -40.333 -106 -57
c-78 -34.667 -154.333 -52 -229 -52c-48.667 0 -94.167 9.5 -136.5 28.5s-79 44.833 -110 77.5s-55.333 70.834 -73 114.501s-26.5 89.834 -26.5 138.501c0 32.667 4.33301 67.667 13 105s20.167 73.5 34.5 108.5s31 67.5 50 97.5s38.833 54.333 59.5 73
c-18.667 -22 -34.334 -67.667 -47.001 -137c-10.667 -59.333 -16 -109.666 -16 -150.999c0 -186.667 80 -280 240 -280c83.333 0 177.333 22.667 282 68c122 53.333 183 116 183 188c-0.666992 18.667 -3.66699 38.167 -9 58.5s-14.666 41.166 -27.999 62.499l-66 111
l65 158l24 -33.5c10.667 -15 22 -30 34 -45s24.333 -28.167 37 -39.5s23.667 -17 33 -17s22 3.33301 38 10s31.5 15 46.5 25s28 20.833 39 32.5s16.5 22.5 16.5 32.5c0 15.333 -4.33301 28.333 -13 39l53 156c0 -2.66699 4.66699 -13.334 14 -32.001
c18 -35.333 36.5 -87.666 55.5 -156.999s37.833 -156.666 56.5 -261.999c6 -32 51 -49.667 135 -53h169v-163zM1142 1211l-73 -134l-193 109l73 137zM511.002 961.996l-77 -138l-189 103l75 137z" />
    <glyph glyph-name="yehnoonfinalarabic" unicode="&#xfef4;&#xfee6;" horiz-adv-x="1364" arabic-form="final" 
d="M1503 226c-121.333 -2 -186.331 -3.00391 -194.998 -3.00391c-85.333 0 -133 28.333 -143 85c-12 66.667 -25.667 124.5 -41 173.5s-33.666 90.167 -54.999 123.5c-0.666992 -5.33301 -2.83398 -13 -6.50098 -23s-9.16699 -22.667 -16.5 -38
c-32 -66.667 -83 -103.667 -153 -111c5.33301 -25.333 8 -50.333 8 -75c0 -28.667 -15.667 -75 -47 -139c-14.667 -30 -28.834 -55.333 -42.501 -76s-26.167 -37 -37.5 -49c-26.667 -27.333 -56.334 -51.666 -89.001 -72.999s-68 -40.333 -106 -57
c-78 -34.667 -154.333 -52 -229 -52c-48.667 0 -94.167 9.5 -136.5 28.5s-79 44.833 -110 77.5s-55.333 70.834 -73 114.501s-26.5 89.834 -26.5 138.501c0 32.667 4.33301 67.667 13 105s20.167 73.5 34.5 108.5s31 67.5 50 97.5s38.833 54.333 59.5 73
c-18.667 -22 -34.334 -67.667 -47.001 -137c-10.667 -59.333 -16 -109.666 -16 -150.999c0 -186.667 80 -280 240 -280c83.333 0 177.333 22.667 282 68c122 53.333 183 116 183 188c-0.666992 18.667 -3.66699 38.167 -9 58.5s-14.666 41.166 -27.999 62.499l-66 111
l65 158l24 -33.5c10.667 -15 22 -30 34 -45s24.333 -28.167 37 -39.5s23.667 -17 33 -17s22 3.33301 38 10s31.5 15 46.5 25s28 20.833 39 32.5s16.5 22.5 16.5 32.5c0 15.333 -4.33301 28.333 -13 39l53 156c0 -2.66699 4.66699 -13.334 14 -32.001
c18 -35.333 36.5 -87.666 55.5 -156.999s37.833 -156.666 56.5 -261.999c6 -32 51 -49.667 135 -53h169v-163zM511.002 961.996l-77 -138l-189 103l75 137zM1157 -300.004l-169 112l84 117l161 -104zM745.002 -198.004l76 122l167 -112l-83 -117z" />
    <glyph glyph-name="behmeeminitialarabic" unicode="&#xfe91;&#xfee4;" horiz-adv-x="1385" arabic-form="initial" 
d="M1378 373c0 -98 -13.6689 -146.999 -41.002 -146.999h-581c-26 -9.33301 -52 -14 -78 -14c-128.667 0 -239.667 38.667 -333 116c-20.667 -68 -70 -102 -148 -102h-211v163c200 0 309.333 7 328 21c12 9.33301 29.667 43.666 53 102.999
c17.333 43.333 33.666 79.333 48.999 108s30.666 51.667 45.999 69s31.166 29.5 47.499 36.5s34.5 10.5 54.5 10.5c53.333 0 108.333 -43 165 -129c54 -80.667 81 -148.334 81 -203.001c0 -3.33301 -0.166992 -6.16602 -0.5 -8.49902s-0.833008 -4.83301 -1.5 -7.5h438
c3.33301 0 8.33301 3.33301 15 10l1 16c0.666992 9.33301 -2.66602 24.333 -9.99902 45s-16.166 41.667 -26.499 63s-21.166 40 -32.499 56s-20.666 24 -27.999 24l74 177c34.667 -15.333 67.334 -77 98.001 -185c27.333 -96 41 -170 41 -222zM705.998 410.001
c0 18 -4.83398 37.5 -14.501 58.5s-21.667 40.5 -36 58.5s-30.333 33 -48 45s-34.5 18 -50.5 18c-10.667 0 -23.667 -4.66699 -39 -14s-30.166 -20.5 -44.499 -33.5s-26.5 -26.667 -36.5 -41s-15 -26.833 -15 -37.5c0 -5.33301 4.16699 -11.333 12.5 -18
s19.333 -13.5 33 -20.5s28.667 -14 45 -21s32.5 -13 48.5 -18s30.833 -9.16699 44.5 -12.5s24.5 -5 32.5 -5c45.333 0 68 13.667 68 41zM1248 -152.999l-77 -141l-190 107l72 136z" />
    <glyph glyph-name="tehjeeminitialarabic" unicode="&#xfe97;&#xfea0;" horiz-adv-x="1737" arabic-form="initial" 
d="M1707 373c0 -98 -13.668 -147 -41.001 -147h-1680v163h805c0.666992 0.666992 1 2 1 4c0 5.33301 -6.16699 15 -18.5 29s-28 29.5 -47 46.5s-40.167 34.167 -63.5 51.5s-46.333 32 -69 44c-64.667 34.667 -125.667 52 -183 52c-43.333 0 -117 -21 -221 -63
c42.667 78.667 74.334 129.334 95.001 152.001c40.667 44.667 94.334 67 161.001 67c81.333 0 181.666 -45.667 300.999 -137l193 -144.5c48 -34.333 79.667 -55.5 95 -63.5c26 -12.667 47 -22 63 -28s27 -9.33301 33 -10h444c10 0 15 8.66699 15 26
c0 10 -3.66699 25.5 -11 46.5s-16.333 42 -27 63s-21.5 39.333 -32.5 55s-20.167 23.5 -27.5 23.5l76 177c34.667 -16.667 67.667 -78.334 99 -185.001c26.667 -90 40 -164 40 -222zM673.999 -114l-79 -148l-205 113l84 143zM1612 1018l-177 105l70 115l177 -100zM1187 1109
l74 117l174 -103l-71 -116z" />
    <glyph glyph-name="tehhahinitialarabic" unicode="&#xfe97;&#xfea4;" horiz-adv-x="1737" arabic-form="initial" 
d="M1707 373c0 -98 -13.668 -147 -41.001 -147h-1680v163h805c0.666992 0.666992 1 2 1 4c0 5.33301 -6.16699 15 -18.5 29s-28 29.5 -47 46.5s-40.167 34.167 -63.5 51.5s-46.333 32 -69 44c-64.667 34.667 -125.667 52 -183 52c-43.333 0 -117 -21 -221 -63
c42.667 78.667 74.334 129.334 95.001 152.001c40.667 44.667 94.334 67 161.001 67c81.333 0 181.666 -45.667 300.999 -137l193 -144.5c48 -34.333 79.667 -55.5 95 -63.5c26 -12.667 47 -22 63 -28s27 -9.33301 33 -10h444c10 0 15 8.66699 15 26
c0 10 -3.66699 25.5 -11 46.5s-16.333 42 -27 63s-21.5 39.333 -32.5 55s-20.167 23.5 -27.5 23.5l76 177c34.667 -16.667 67.667 -78.334 99 -185.001c26.667 -90 40 -164 40 -222zM1612 1018l-177 105l70 115l177 -100zM1187 1109l74 117l174 -103l-71 -116z" />
    <glyph glyph-name="tehmeeminitialarabic" unicode="&#xfe97;&#xfee4;" horiz-adv-x="1405" arabic-form="initial" 
d="M1378 373c0 -98 -13.6689 -146.999 -41.002 -146.999h-581c-26 -9.33301 -52 -14 -78 -14c-128.667 0 -239.667 38.667 -333 116c-20.667 -68 -70 -102 -148 -102h-211v163c200 0 309.333 7 328 21c12 9.33301 29.667 43.666 53 102.999
c17.333 43.333 33.666 79.333 48.999 108s30.666 51.667 45.999 69s31.166 29.5 47.499 36.5s34.5 10.5 54.5 10.5c53.333 0 108.333 -43 165 -129c54 -80.667 81 -148.334 81 -203.001c0 -3.33301 -0.166992 -6.16602 -0.5 -8.49902s-0.833008 -4.83301 -1.5 -7.5h438
c3.33301 0 8.33301 3.33301 15 10l1 16c0.666992 9.33301 -2.66602 24.333 -9.99902 45s-16.166 41.667 -26.499 63s-21.166 40 -32.499 56s-20.666 24 -27.999 24l74 177c34.667 -15.333 67.334 -77 98.001 -185c27.333 -96 41 -170 41 -222zM705.998 410.001
c0 18 -4.83398 37.5 -14.501 58.5s-21.667 40.5 -36 58.5s-30.333 33 -48 45s-34.5 18 -50.5 18c-10.667 0 -23.667 -4.66699 -39 -14s-30.166 -20.5 -44.499 -33.5s-26.5 -26.667 -36.5 -41s-15 -26.833 -15 -37.5c0 -5.33301 4.16699 -11.333 12.5 -18
s19.333 -13.5 33 -20.5s28.667 -14 45 -21s32.5 -13 48.5 -18s30.833 -9.16699 44.5 -12.5s24.5 -5 32.5 -5c45.333 0 68 13.667 68 41zM1284 1021l-179 105l71 117l180 -102zM857.997 1112l73 117l174 -103l-70 -116z" />
    <glyph glyph-name="lamjeeminitialarabic" unicode="&#xfedf;&#xfea0;" horiz-adv-x="1505" arabic-form="initial" 
d="M1488 1225l-68.999 -141v-832l-41 -26h-1392v163h806c-20.667 54 -75.334 106.333 -164.001 157c-42 24 -81 41.667 -117 53s-69.333 17 -100 17c-43.333 0 -117 -21 -221 -63c21.333 40 40 72.5 56 97.5s29.333 43.167 40 54.5c40.667 44.667 94 67 160 67
c82 0 183.667 -46.333 305 -139l193.5 -144c47 -34 77.167 -54.667 90.5 -62c52 -25.333 84 -38 96 -38h160v770l-45 175l151 150l13 -175zM674.001 -114l-79 -148l-205 113l84 143z" />
    <glyph glyph-name="lamhahinitialarabic" unicode="&#xfedf;&#xfea4;" horiz-adv-x="1505" arabic-form="initial" 
d="M1488 1225l-69 -141v-832l-41 -26h-1392v163h806c0 7.33301 -6 18 -18 32s-27.5 29.667 -46.5 47s-40.333 34.666 -64 51.999s-46.834 32 -69.501 44c-64.667 34.667 -125.667 52 -183 52c-43.333 0 -117 -21 -221 -63c42.667 78.667 74.334 129.334 95.001 152.001
c40.667 44.667 94.334 67 161.001 67c99.333 0 216.333 -59.333 351 -178l74 -60.5c26 -20.333 54.333 -40.833 85 -61.5c83.333 -55.333 141.666 -83 174.999 -83h160v770l-45 175l151 150l13 -175z" />
    <glyph glyph-name="lamkhahinitialarabic" unicode="&#xfedf;&#xfea8;" horiz-adv-x="1505" arabic-form="initial" 
d="M1488 1225l-68.999 -141v-832l-41 -26h-1392v163h806c-20.667 54 -75.334 106.333 -164.001 157c-42 24 -81 41.667 -117 53s-69.333 17 -100 17c-43.333 0 -117 -21 -221 -63c21.333 40 40 72.5 56 97.5s29.333 43.167 40 54.5c40.667 44.667 94 67 160 67
c82 0 183.667 -46.333 305 -139l193.5 -144c47 -34 77.167 -54.667 90.5 -62c52 -25.333 84 -38 96 -38h160v770l-45 175l151 150l13 -175zM663.001 1221l-82 -148l-198 117l80 138z" />
    <glyph glyph-name="lammeeminitialarabic" unicode="&#xfedf;&#xfee4;" horiz-adv-x="701" arabic-form="initial" 
d="M693 287c0 -53.333 -20.665 -91.665 -61.998 -114.998l-179 134c-116 -53.333 -212.333 -80 -289 -80h-177v163c48 0 86.167 0.333008 114.5 1s47.166 1.66699 56.499 3c23.333 3.33301 48.166 8.66602 74.499 15.999s54.5 17.666 84.5 30.999v715l-62 188l153 141
c0 -48 0.333008 -85.5 1 -112.5s1.66699 -43.833 3 -50.5c11.333 -47.333 44 -88.333 98 -123l-82 -132v-543l249 -192c11.333 -19.333 17 -34 17 -44z" />
    <glyph glyph-name="meemmeeminitialarabic" unicode="&#xfee3;&#xfee4;" horiz-adv-x="1629" arabic-form="initial" 
d="M1640 351c0 -92.667 -45.9971 -138.999 -137.997 -138.999c-42 0 -101.667 11.667 -179 35c-42 13.333 -75.5 26.833 -100.5 40.5s-41.167 27.167 -48.5 40.5c-20.667 -68 -70 -102 -148 -102h-268c-20.667 -9.33301 -48 -14 -82 -14c-126 0 -236.333 38.667 -331 116
c-20.667 -68 -70 -102 -148 -102h-211v163c200 0 309.333 7 328 21c11.333 8.66699 29 43 53 103c16.667 42 32.667 77.333 48 106s30.666 51.834 45.999 69.501s31.5 30.167 48.5 37.5s35.5 11 55.5 11c50.667 0 104.667 -42.667 162 -128
c55.333 -80.667 82.666 -148.667 81.999 -204v-8c0 -2.66699 -0.333008 -5.33398 -1 -8.00098h125c121.333 0 191 7 209 21c11.333 9.33301 28.333 43.666 51 102.999c16.667 42.667 32.667 78.334 48 107.001s30.833 51.667 46.5 69s32 29.666 49 36.999s35.833 11 56.5 11
c63.333 0 121.666 -49.667 174.999 -149c48.667 -88.667 72.667 -167.667 72 -237zM1534 410.001c0 16.667 -4.50195 35.333 -13.502 56s-20.667 40.167 -35 58.5s-30.333 33.833 -48 46.5s-35.167 19 -52.5 19c-10 0 -22.833 -4.66699 -38.5 -14s-30.667 -20.5 -45 -33.5
s-26.833 -26.667 -37.5 -41s-16 -26.833 -16 -37.5c0 -4.66699 4.33301 -10.334 13 -17.001s19.834 -13.667 33.501 -21s28.834 -14.333 45.501 -21s33 -12.667 49 -18s30.833 -9.66602 44.5 -12.999s24.167 -5 31.5 -5c46 0 69 13.667 69 41zM706.001 410
c0 18 -4.83398 37.5 -14.501 58.5s-21.667 40.5 -36 58.5s-30.333 33 -48 45s-34.5 18 -50.5 18c-10.667 0 -23.667 -4.66699 -39 -14s-30.166 -20.5 -44.499 -33.5s-26.5 -26.667 -36.5 -41s-15 -26.833 -15 -37.5c0 -5.33301 4.16699 -11.333 12.5 -18
s19.333 -13.5 33 -20.5s28.667 -14 45 -21s32.5 -13 48.5 -18s30.833 -9.16699 44.5 -12.5s24.5 -5 32.5 -5c45.333 0 68 13.667 68 41z" />
    <glyph glyph-name="noonjeeminitialarabic" unicode="&#xfee7;&#xfea0;" horiz-adv-x="1737" arabic-form="initial" 
d="M1707 373c0 -98 -13.668 -147 -41.001 -147h-1680v163h805c0.666992 0.666992 1 2 1 4c0 5.33301 -6.16699 15 -18.5 29s-28 29.5 -47 46.5s-40.167 34.167 -63.5 51.5s-46.333 32 -69 44c-64.667 34.667 -125.667 52 -183 52c-43.333 0 -117 -21 -221 -63
c42.667 78.667 74.334 129.334 95.001 152.001c40.667 44.667 94.334 67 161.001 67c81.333 0 181.666 -45.667 300.999 -137l193 -144.5c48 -34.333 79.667 -55.5 95 -63.5c26 -12.667 47 -22 63 -28s27 -9.33301 33 -10h444c10 0 15 8.66699 15 26
c0 10 -3.66699 25.5 -11 46.5s-16.333 42 -27 63s-21.5 39.333 -32.5 55s-20.167 23.5 -27.5 23.5l76 177c34.667 -16.667 67.667 -78.334 99 -185.001c26.667 -90 40 -164 40 -222zM673.999 -114l-79 -148l-205 113l84 143zM1585 1141l-73 -134l-193 109l72 136z" />
    <glyph glyph-name="noonmeeminitialarabic" unicode="&#xfee7;&#xfee4;" horiz-adv-x="1405" arabic-form="initial" 
d="M1378 373c0 -98 -13.6689 -146.999 -41.002 -146.999h-581c-26 -9.33301 -52 -14 -78 -14c-128.667 0 -239.667 38.667 -333 116c-20.667 -68 -70 -102 -148 -102h-211v163c200 0 309.333 7 328 21c12 9.33301 29.667 43.666 53 102.999
c17.333 43.333 33.666 79.333 48.999 108s30.666 51.667 45.999 69s31.166 29.5 47.499 36.5s34.5 10.5 54.5 10.5c53.333 0 108.333 -43 165 -129c54 -80.667 81 -148.334 81 -203.001c0 -3.33301 -0.166992 -6.16602 -0.5 -8.49902s-0.833008 -4.83301 -1.5 -7.5h438
c3.33301 0 8.33301 3.33301 15 10l1 16c0.666992 9.33301 -2.66602 24.333 -9.99902 45s-16.166 41.667 -26.499 63s-21.166 40 -32.499 56s-20.666 24 -27.999 24l74 177c34.667 -15.333 67.334 -77 98.001 -185c27.333 -96 41 -170 41 -222zM705.998 410.001
c0 18 -4.83398 37.5 -14.501 58.5s-21.667 40.5 -36 58.5s-30.333 33 -48 45s-34.5 18 -50.5 18c-10.667 0 -23.667 -4.66699 -39 -14s-30.166 -20.5 -44.499 -33.5s-26.5 -26.667 -36.5 -41s-15 -26.833 -15 -37.5c0 -5.33301 4.16699 -11.333 12.5 -18
s19.333 -13.5 33 -20.5s28.667 -14 45 -21s32.5 -13 48.5 -18s30.833 -9.16699 44.5 -12.5s24.5 -5 32.5 -5c45.333 0 68 13.667 68 41zM1252 1141l-71 -134l-193 109l72 136z" />
    <glyph glyph-name="yehmeeminitialarabic" unicode="&#xfef3;&#xfee4;" horiz-adv-x="1385" arabic-form="initial" 
d="M1378 373c0 -98 -13.6689 -146.999 -41.002 -146.999h-581c-26 -9.33301 -52 -14 -78 -14c-128.667 0 -239.667 38.667 -333 116c-20.667 -68 -70 -102 -148 -102h-211v163c200 0 309.333 7 328 21c12 9.33301 29.667 43.666 53 102.999
c17.333 43.333 33.666 79.333 48.999 108s30.666 51.667 45.999 69s31.166 29.5 47.499 36.5s34.5 10.5 54.5 10.5c53.333 0 108.333 -43 165 -129c54 -80.667 81 -148.334 81 -203.001c0 -3.33301 -0.166992 -6.16602 -0.5 -8.49902s-0.833008 -4.83301 -1.5 -7.5h438
c3.33301 0 8.33301 3.33301 15 10l1 16c0.666992 9.33301 -2.66602 24.333 -9.99902 45s-16.166 41.667 -26.499 63s-21.166 40 -32.499 56s-20.666 24 -27.999 24l74 177c34.667 -15.333 67.334 -77 98.001 -185c27.333 -96 41 -170 41 -222zM705.998 410.001
c0 18 -4.83398 37.5 -14.501 58.5s-21.667 40.5 -36 58.5s-30.333 33 -48 45s-34.5 18 -50.5 18c-10.667 0 -23.667 -4.66699 -39 -14s-30.166 -20.5 -44.499 -33.5s-26.5 -26.667 -36.5 -41s-15 -26.833 -15 -37.5c0 -5.33301 4.16699 -11.333 12.5 -18
s19.333 -13.5 33 -20.5s28.667 -14 45 -21s32.5 -13 48.5 -18s30.833 -9.16699 44.5 -12.5s24.5 -5 32.5 -5c45.333 0 68 13.667 68 41zM850.997 -193.999l70 125l171 -107l-66 -122zM1262 -282.999l-170 107l63 114l173 -102z" />
    <glyph glyph-name="lamalefmaddaaboveisolatedarabic" unicode="&#xfedf;&#xfe82;" arabic-form="isolated" 
d="M947 1238l-68 -138l-39 9c-20 -158.667 -70 -310 -150 -454c40.667 -96 61 -187.667 61 -275c0 -110 -34.333 -166.333 -103 -169l-353 -15l11 171c115.333 69.333 207 153.333 275 252l6 4c-3.33301 3.33301 -6.5 7.16602 -9.5 11.499l-9.5 13.5
c-84.667 121.333 -165.667 208.333 -243 261l-48 -59c-101.333 94 -152 179 -152 255c0 15.333 1.83301 29.833 5.5 43.5s9 25.667 16 36s15.167 18.5 24.5 24.5s19.333 9 30 9c58 0 140.667 -66.667 248 -200c36 -44 70.333 -89.667 103 -137s64.667 -96.666 96 -147.999
c67.333 144 101 287 101 429c0 72 -7.66699 139.667 -23 203l110 113l38 -154zM484 1543c-9.33301 -36 -18.335 -65.833 -27.002 -89.5s-17.334 -41.5 -26.001 -53.5c-28 -40.667 -72.667 -61 -134 -61c-4 0 -10.5 0.5 -19.5 1.5l-27.5 3l-27 3c-8.66699 1 -15 1.5 -19 1.5
c-33.333 0 -62.666 -8 -87.999 -24c-4.66699 -2.66699 -13.167 -8.5 -25.5 -17.5s-28.166 -21.833 -47.499 -38.5c11.333 36 21.333 65.333 30 88s16 38.667 22 48c29.333 45.333 69 68 119 68c6 0 15.333 -1.16699 28 -3.5l39 -7.5l38.5 -7.5
c12.333 -2.33301 21.5 -3.5 27.5 -3.5c34.667 0 62.334 8.66699 83.001 26c9.33301 6.66699 27.333 29 54 67zM664.998 421c0 36 -13 79 -39 129c-40 -60 -94.333 -120.333 -163 -181l196 13c4 13.333 6 26.333 6 39zM625.998 551v-1l1 1v1z" />
    <glyph glyph-name="lamalefmaddaabovefinalarabic" unicode="&#xfee0;&#xfe82;" horiz-adv-x="1098" arabic-form="final" 
d="M1237 226l-208.002 -0.00390625c-66 0 -114.667 31.667 -146 95c-0.666992 2 -5.5 17.667 -14.5 47l-39.5 131c-16.667 53.333 -25.667 87 -27 101c-3.33301 -20.667 -11.666 -47.334 -24.999 -80.001c-13.333 -33.333 -32.666 -73.666 -57.999 -120.999
c-56.667 -105.333 -97 -170 -121 -194c-79.333 -81.333 -234 -122 -464 -122c-83.333 0 -141.666 7.33301 -174.999 22c213.333 32.667 401 106 563 220c9.33301 44.667 14 83.667 14 117c0 74.667 -20.667 139.667 -62 195c-84 114 -143.667 182.667 -179 206l-54 -65
c-100 99.333 -150 185.333 -150 258c0 12 2 24.5 6 37.5s9.33301 24.667 16 35s14.334 19 23.001 26s17.667 10.5 27 10.5c53.333 0 129.333 -56 228 -168c82.667 -93.333 143 -175.666 181 -246.999c25.333 -48 38 -156.667 38 -326
c21.333 24.667 39.166 46.834 53.499 66.501s25.166 36.834 32.499 51.501c19.333 38 33.333 86 42 144c10.667 71.333 18.5 149.5 23.5 234.5s7.5 177.833 7.5 278.5c0 28 -0.5 51.5 -1.5 70.5s-2.83301 33.833 -5.5 44.5l132 108l-1 -79
c-0.666992 -25.333 -1 -50.333 -1 -75v-73c0 -293.333 13 -526.666 39 -699.999c9.33301 -59.333 73 -89 191 -89c5.33301 0 13.333 0.166992 24 0.5l33.5 1l33.5 1c10.667 0.333008 18.667 0.5 24 0.5v-163zM437.998 1493c-19.333 -73.333 -36.6699 -121 -52.0029 -143
c-29.333 -41.333 -74 -62 -134 -62c-4.66699 0 -11.167 0.5 -19.5 1.5s-17.166 2.16699 -26.499 3.5s-18.166 2.5 -26.499 3.5s-14.5 1.5 -18.5 1.5c-34.667 0 -64.667 -8.33301 -90 -25l-23.5 -18l-50.5 -40c24.667 74 42.334 120 53.001 138c28 46 67.333 69 118 69
c7.33301 0 17.333 -1.16699 30 -3.5l39 -7.5l38.5 -7.5c12.333 -2.33301 21.5 -3.5 27.5 -3.5c36 0 63.667 8.33301 83 25c8 6 25.333 28.667 52 68zM802.994 607.996c-0.666992 -0.666992 -1 -2.66699 -1 -6c0.666992 1.33301 1 3.33301 1 6z" />
    <glyph glyph-name="lamalefhamzaaboveisolatedarabic" unicode="&#xfedf;&#xfe84;" arabic-form="isolated" 
d="M947 1238l-68 -138l-39 9c-20 -158.667 -70 -310 -150 -454c40.667 -96 61 -187.667 61 -275c0 -110 -34.333 -166.333 -103 -169l-353 -15l11 171c115.333 69.333 207 153.333 275 252l6 4c-3.33301 3.33301 -6.5 7.16602 -9.5 11.499l-9.5 13.5
c-84.667 121.333 -165.667 208.333 -243 261l-48 -59c-101.333 94 -152 179 -152 255c0 15.333 1.83301 29.833 5.5 43.5s9 25.667 16 36s15.167 18.5 24.5 24.5s19.333 9 30 9c58 0 140.667 -66.667 248 -200c36 -44 70.333 -89.667 103 -137s64.667 -96.666 96 -147.999
c67.333 144 101 287 101 429c0 72 -7.66699 139.667 -23 203l110 113l38 -154zM336 1450l-25 -80.002c-66.667 -20 -116.334 -40.333 -149.001 -61c-12.667 -8 -29.167 -20.833 -49.5 -38.5s-44.833 -40.167 -73.5 -67.5c-3.33301 3.33301 -5 7 -5 11
c0 5.33301 1.33301 12.5 4 21.5s6 18 10 27s8.16699 17.5 12.5 25.5s8.5 13.667 12.5 17c-48.667 30.667 -73 62.334 -73 95.001c0 27.333 6.5 53.333 19.5 78s30 46.334 51 65.001s45 33.5 72 44.5s54.5 16.5 82.5 16.5c18 0 34 -3 48 -9l-29 -76
c-6.66699 5.33301 -25 8 -55 8c-17.333 0 -34.166 -2.83301 -50.499 -8.5s-31 -13 -44 -22s-23.333 -19.5 -31 -31.5s-11.5 -24 -11.5 -36c0 -21.333 15.333 -32 46 -32h52zM665 420.998c0 36 -13 79 -39 129c-40 -60 -94.333 -120.333 -163 -181l196 13
c4 13.333 6 26.333 6 39zM626 550.998v-1l1 1v1z" />
    <glyph glyph-name="lamalefhamzaabovefinalarabic" unicode="&#xfee0;&#xfe84;" horiz-adv-x="1098" arabic-form="final" 
d="M332 1379l-25.999 -78.999c-76.667 -23.333 -128.334 -46.333 -155.001 -69l-50 -42l-69 -58l-2 10c0 4.66699 1.33301 11.667 4 21s6 18.833 10 28.5s8.16699 18.5 12.5 26.5s8.16602 13.333 11.499 16c-50 33.333 -75 65 -75 95c0 38.667 20.333 83.667 61 135
c37.333 47.333 92 71 164 71c18.667 0 35.667 -3.33301 51 -10l-28 -79c-3.33301 7.33301 -22.333 11 -57 11c-15.333 0 -31 -2.5 -47 -7.5s-30.667 -11.833 -44 -20.5s-24.166 -18.834 -32.499 -30.501s-12.5 -24.5 -12.5 -38.5c0 -21.333 15.333 -32 46 -32h51z
M1237 226.001l-208.001 -0.00488281c-66 0 -114.667 31.667 -146 95c-0.666992 2 -5.5 17.667 -14.5 47l-39.5 131c-16.667 53.333 -25 90.333 -25 111c-4.66699 -27.333 -13.667 -57.333 -27 -90c-13.333 -33.333 -32.666 -73.666 -57.999 -120.999
c-56.667 -105.333 -97 -170 -121 -194c-79.333 -81.333 -234 -122 -464 -122c-83.333 0 -141.666 7.33301 -174.999 22c213.333 32.667 401 106 563 220c9.33301 44.667 14 83.667 14 117c0 74.667 -20.667 139.667 -62 195c-84 114 -143.667 182.667 -179 206l-54 -65
c-100 99.333 -150 185.333 -150 258c0 12 2 24.5 6 37.5s9.33301 24.667 16 35s14.334 19 23.001 26s17.667 10.5 27 10.5c53.333 0 129.333 -56 228 -168c82.667 -93.333 143 -175.666 181 -246.999c25.333 -48 38 -156.667 38 -326
c21.333 24.667 39.166 46.834 53.499 66.501s25.166 36.834 32.499 51.501c19.333 38 33.333 86 42 144c10.667 71.333 18.5 149.5 23.5 234.5s7.5 177.833 7.5 278.5c0 28 -0.5 51.5 -1.5 70.5s-2.83301 33.833 -5.5 44.5l130 108v-227c0 -293.333 13 -526.666 39 -699.999
c11.333 -57.333 75 -86 191 -86h115v-163z" />
    <glyph glyph-name="lamalefhamzabelowisolatedarabic" unicode="&#xfedf;&#xfe88;" arabic-form="isolated" 
d="M947 1238l-68 -138l-39 9c-20 -158.667 -70 -310 -150 -454c40.667 -96 61 -187.667 61 -275c0 -110 -34.333 -166.333 -103 -169l-353 -15l11 171c115.333 69.333 207 153.333 275 252l6 4c-3.33301 3.33301 -6.5 7.16602 -9.5 11.499l-9.5 13.5
c-84.667 121.333 -165.667 208.333 -243 261l-48 -59c-101.333 94 -152 179 -152 255c0 15.333 1.83301 29.833 5.5 43.5s9 25.667 16 36s15.167 18.5 24.5 24.5s19.333 9 30 9c58 0 140.667 -66.667 248 -200c36 -44 70.333 -89.667 103 -137s64.667 -96.666 96 -147.999
c67.333 144 101 287 101 429c0 72 -7.66699 139.667 -23 203l110 113l38 -154zM747 -125l-24.999 -79.9971c-34 -10.667 -63 -21.334 -87 -32.001s-44.667 -21.334 -62 -32.001c-24 -14.667 -65 -49.334 -123 -104.001l-5 9c0 4.66699 1.33301 11.667 4 21s6 18.833 10 28.5
s8.16699 18.5 12.5 26.5s8.5 13.667 12.5 17c-48.667 32 -73 64 -73 96c0 35.333 20.333 79.333 61 132c37.333 48 91.666 72 162.999 72c19.333 0 36 -3.33301 50 -10l-26 -79c-6 7.33301 -26 11 -60 11c-16 0 -32 -2.5 -48 -7.5s-30.5 -12 -43.5 -21
s-23.667 -19.333 -32 -31s-12.5 -24.167 -12.5 -37.5c0 -22 15.333 -33 46 -33h54l89 26.5zM665.001 421.003c0 36 -13 79 -39 129c-40 -60 -94.333 -120.333 -163 -181l196 13c4 13.333 6 26.333 6 39z" />
    <glyph glyph-name="lamalefhamzabelowfinalarabic" unicode="&#xfee0;&#xfe88;" horiz-adv-x="1098" arabic-form="final" 
d="M904 -76l-24.999 -79.998c-78.667 -23.333 -131 -46 -157 -68l-49 -42.5c-19.333 -17 -42.333 -36.167 -69 -57.5c-0.666992 1.33301 -1 3 -1 5c0 1.33301 -0.333008 3 -1 5c0 4.66699 1.5 11.667 4.5 21s6.5 18.833 10.5 28.5s8.16699 18.667 12.5 27
s8.16602 14.166 11.499 17.499c-50.667 32 -76 63.667 -76 95c0 36 20.333 80.333 61 133c37.333 47.333 92.333 71 165 71c18 0 34.333 -3 49 -9l-30 -80c-1.33301 7.33301 -20 11 -56 11c-17.333 0 -34 -2.5 -50 -7.5s-30.333 -11.833 -43 -20.5
s-22.667 -18.834 -30 -30.501s-11 -24.5 -11 -38.5c0 -21.333 15 -32 45 -32h52zM1237 226.002l-208.001 -0.00488281c-66 0 -114.667 31.667 -146 95c-0.666992 2 -5.5 17.667 -14.5 47l-39.5 131c-16.667 53.333 -25 90.333 -25 111
c-4.66699 -27.333 -13.667 -57.333 -27 -90c-13.333 -33.333 -32.666 -73.666 -57.999 -120.999c-56.667 -105.333 -97 -170 -121 -194c-79.333 -81.333 -234 -122 -464 -122c-83.333 0 -141.666 7.33301 -174.999 22c213.333 32.667 401 106 563 220
c9.33301 44.667 14 83.667 14 117c0 74.667 -20.667 139.667 -62 195c-84 114 -143.667 182.667 -179 206l-54 -65c-100 99.333 -150 185.333 -150 258c0 12 2 24.5 6 37.5s9.33301 24.667 16 35s14.334 19 23.001 26s17.667 10.5 27 10.5c53.333 0 129.333 -56 228 -168
c82.667 -93.333 143 -175.666 181 -246.999c25.333 -48 38 -156.667 38 -326c21.333 24.667 39.166 46.834 53.499 66.501s25.166 36.834 32.499 51.501c19.333 38 33.333 86 42 144c10.667 71.333 18.5 149.5 23.5 234.5s7.5 177.833 7.5 278.5c0 28 -0.5 51.5 -1.5 70.5
s-2.83301 33.833 -5.5 44.5l130 108v-227c0 -293.333 13 -526.666 39 -699.999c11.333 -57.333 75 -86 191 -86h115v-163z" />
    <glyph glyph-name="lamalefisolatedarabic" unicode="&#xfedf;&#xfe8e;" arabic-form="isolated" 
d="M947 1238l-68 -138l-39 9c-20 -158.667 -70 -310 -150 -454c40.667 -96 61 -187.667 61 -275c0 -110 -34.333 -166.333 -103 -169l-353 -15l11 171c115.333 69.333 207 153.333 275 252l6 4c-3.33301 3.33301 -6.5 7.16602 -9.5 11.499l-9.5 13.5
c-84.667 121.333 -165.667 208.333 -243 261l-48 -59c-101.333 94 -152 179 -152 255c0 15.333 1.83301 29.833 5.5 43.5s9 25.667 16 36s15.167 18.5 24.5 24.5s19.333 9 30 9c58 0 140.667 -66.667 248 -200c36 -44 70.333 -89.667 103 -137s64.667 -96.666 96 -147.999
c67.333 144 101 287 101 429c0 72 -7.66699 139.667 -23 203l110 113l38 -154zM665 421c0 36 -13 79 -39 129c-40 -60 -94.333 -120.333 -163 -181l196 13c4 13.333 6 26.333 6 39z" />
    <glyph glyph-name="lamaleffinalarabic" unicode="&#xfee0;&#xfe8e;" horiz-adv-x="1098" arabic-form="final" 
d="M1237 226l-208.001 -0.00488281c-66 0 -114.667 31.667 -146 95c-0.666992 2 -5.5 17.667 -14.5 47l-39.5 131c-16.667 53.333 -25 90.333 -25 111c-4.66699 -27.333 -13.667 -57.333 -27 -90c-13.333 -33.333 -32.666 -73.666 -57.999 -120.999
c-56.667 -105.333 -97 -170 -121 -194c-79.333 -81.333 -234 -122 -464 -122c-83.333 0 -141.666 7.33301 -174.999 22c213.333 32.667 401 106 563 220c9.33301 44.667 14 83.667 14 117c0 74.667 -20.667 139.667 -62 195c-84 114 -143.667 182.667 -179 206l-54 -65
c-100 99.333 -150 185.333 -150 258c0 12 2 24.5 6 37.5s9.33301 24.667 16 35s14.334 19 23.001 26s17.667 10.5 27 10.5c53.333 0 129.333 -56 228 -168c82.667 -93.333 143 -175.666 181 -246.999c25.333 -48 38 -156.667 38 -326
c21.333 24.667 39.166 46.834 53.499 66.501s25.166 36.834 32.499 51.501c19.333 38 33.333 86 42 144c10.667 71.333 18.5 149.5 23.5 234.5s7.5 177.833 7.5 278.5c0 28 -0.5 51.5 -1.5 70.5s-2.83301 33.833 -5.5 44.5l130 108v-227c0 -293.333 13 -526.666 39 -699.999
c11.333 -57.333 75 -86 191 -86h115v-163z" />
    <glyph glyph-name="hamzaarabic" unicode="&#x621;" horiz-adv-x="590" arabic-form="isolated" 
d="M468 490l-46 -116.999c-84 -16.667 -144.333 -31.667 -181 -45c-21.333 -8 -40.333 -16.5 -57 -25.5s-33.5 -19.5 -50.5 -31.5s-35.5 -26 -55.5 -42l-74 -57c-4.66699 4 -7 8.33301 -7 13c0 6.66699 2.83301 17 8.5 31s12.5 28.167 20.5 42.5s16.333 27.5 25 39.5
s16 19.667 22 23c-38.667 29.333 -60.334 46 -65.001 50c-20 21.333 -30 45.666 -30 72.999c0 54.667 36.667 119.667 110 195c49.333 50 122 75 218 75c36.667 0 67.667 -6.66699 93 -20l-48 -100c-2.66699 14.667 -38.667 22 -108 22c-22 0 -44.333 -3.33301 -67 -10
s-43 -15.834 -61 -27.501s-32.667 -25 -44 -40s-17 -30.5 -17 -46.5c0 -23.333 17.667 -40.666 53 -51.999l25.5 -5c13.667 -2.66699 32.834 -6.66699 57.501 -12z" />
    <glyph glyph-name="alefmaddaabovearabic" unicode="&#x622;" horiz-adv-x="550" arabic-form="isolated" 
d="M427 283l-132 -152v933l132 134v-915zM470 1484c0 -94 -64.668 -140.999 -194.001 -140.999c-30.667 0 -53.667 -5 -69 -15c-3.33301 -2.66699 -8.66602 -8.33398 -15.999 -17.001s-16.666 -20.667 -27.999 -36c0.666992 8.66699 1.33398 20.5 2.00098 35.5
s2.66699 33.167 6 54.5c3.33301 26 19.166 45.5 47.499 58.5s68.166 19.5 119.499 19.5c19.333 0 35 0.833008 47 2.5s22.667 5 32 10s18 12.167 26 21.5s17 22 27 38v-31z" />
    <glyph glyph-name="alefhamzaabovearabic" unicode="&#x623;" horiz-adv-x="550" arabic-form="isolated" 
d="M440 283l-129 -152v933l129 134v-915zM484 1461l-25 -82.002c-68.667 -22 -118.667 -44 -150 -66l-123 -102c-2.66699 2.66699 -4 6.33398 -4 11.001c0 36 12.667 67.333 38 94c-48.667 32 -73 62.667 -73 92c0 27.333 6.33301 53.333 19 78s29.5 46.334 50.5 65.001
s45.333 33.5 73 44.5s56.167 16.5 85.5 16.5c17.333 0 33 -2 47 -6l-29 -82c-2 9.33301 -22 14 -60 14c-16 0 -32 -2.66699 -48 -8s-30.333 -12.5 -43 -21.5s-22.834 -19.5 -30.501 -31.5s-11.5 -24.667 -11.5 -38c0 -8.66699 6.83301 -16.667 20.5 -24
s31.834 -11 54.501 -11c8.66699 0 16 1 22 3z" />
    <glyph glyph-name="wawhamzaabovearabic" unicode="&#x624;" horiz-adv-x="738" arabic-form="isolated" 
d="M738 383c0 -148.667 -35.333 -278.334 -106 -389.001c-82 -128 -193.333 -192 -334 -192c-101.333 0 -181.666 23.667 -240.999 71c-26 21.333 -50.5 49.833 -73.5 85.5s-44.167 78.5 -63.5 128.5c16 -32.667 63 -68.667 141 -108c73.333 -37.333 131 -56 173 -56
c44 0 87.333 7.66699 130 23s82 36.333 118 63s67.167 58.334 93.5 95.001s45.166 76 56.499 118c-4 -0.666992 -8 -1.16699 -12 -1.5s-8 -0.5 -12 -0.5c-34.667 0 -67.667 6.33301 -99 19s-59 30 -83 52s-43 47.667 -57 77s-21 60.333 -21 93c0 52 23.667 113.667 71 185
c51.333 75.333 101.333 113 150 113c14 0 29.333 -6 46 -18c82 -56.667 123 -176 123 -358zM557 1047l-26.002 -77.998c-34 -10.667 -63 -21.334 -87 -32.001s-44.333 -21.334 -61 -32.001c-12.667 -7.33301 -29.167 -19.666 -49.5 -36.999s-45.5 -40 -75.5 -68l-4 9
c0 5.33301 1.33301 12.5 4 21.5s6 18.333 10 28s8.16699 18.667 12.5 27s8.16602 13.833 11.499 16.5c-48 33.333 -72 65.333 -72 96c0 37.333 20.333 81.666 61 132.999c37.333 48 92.333 72 165 72c18 0 34.333 -2.66699 49 -8l-27 -82c-4.66699 8 -25 12 -61 12
c-17.333 0 -34.166 -2.5 -50.499 -7.5s-30.666 -11.833 -42.999 -20.5s-22.166 -19 -29.499 -31s-11 -24.667 -11 -38c0 -22 15 -33 45 -33h54zM648.998 409.002c0 18 -3.16602 36.333 -9.49902 55s-14.833 35.334 -25.5 50.001s-23.334 26.667 -38.001 36
s-30.334 14 -47.001 14c-9.33301 0 -18.5 -2.83301 -27.5 -8.5s-17.167 -13 -24.5 -22s-13.166 -18.833 -17.499 -29.5s-6.5 -21 -6.5 -31c0 -10.667 5.5 -21.167 16.5 -31.5s24.833 -19.333 41.5 -27s35 -13.834 55 -18.501s39 -7 57 -7c17.333 0 26 6.66699 26 20z" />
    <glyph glyph-name="alefhamzabelowarabic" unicode="&#x625;" horiz-adv-x="550" arabic-form="isolated" 
d="M446 408l-130 -182v1102l130 156v-1076zM529 -179l-4.99805 -75.998c-36 -12.667 -67.667 -25.334 -95 -38.001s-51 -25.334 -71 -38.001c-12.667 -7.33301 -30.834 -20.166 -54.501 -38.499l-89.5 -71.5l-6 8c0 6 1.83301 15.5 5.5 28.5s8 26.167 13 39.5
s10.167 25.666 15.5 36.999s10 18.333 14 21c-59.333 32 -89 65 -89 99c0 40.667 22 86 66 136c45.333 50 87.333 75 126 75c34 0 70.333 -14.333 109 -43l-37 -59c-2.66699 6 -21.334 9 -56.001 9c-89.333 0 -134 -31 -134 -93c0 -33.333 31.667 -50 95 -50
c27.333 0 60 6.66699 98 20z" />
    <glyph glyph-name="yehhamzaabovearabic" unicode="&#x626;" horiz-adv-x="1210" arabic-form="isolated" 
d="M1192 694c0 -42 -22.6689 -97.333 -68.002 -166c-32 36.667 -59.333 55 -82 55c-48 0 -123.333 -27.333 -226 -82c-108.667 -56.667 -163 -104.334 -163 -143.001c0 -14.667 41 -29.667 123 -45c65.333 -11.333 116.833 -20.666 154.5 -27.999
s61.834 -12.666 72.501 -15.999c42 -11.333 72.333 -23.666 91 -36.999s28 -29 28 -47l-9 -145c-4 -70.667 -109.333 -141.667 -316 -213c-178.667 -62 -315 -93 -409 -93c-53.333 0 -102 7.83301 -146 23.5s-81.5 38.334 -112.5 68.001s-55 66 -72 109
s-25.5 91.833 -25.5 146.5c0 89.333 28.333 194.666 85 315.999c61.333 130.667 127 215 197 253c-38.667 -38.667 -78.667 -116.667 -120 -234c-19.333 -56 -34.166 -105.333 -44.499 -148s-15.5 -79.334 -15.5 -110.001c0 -160.667 102 -241 306 -241
c76 0 176.333 17 301 51c73.333 20.667 130.5 42.167 171.5 64.5s66.167 45.166 75.5 68.499c-158 38 -259 57 -303 57c-85.333 0 -128 33.333 -128 100c0 103.333 64.667 213 194 329c127.333 114 244 171 350 171c60.667 0 91 -21.333 91 -64zM269.998 1119
l-25.001 -79.9971c-33.333 -10.667 -62.333 -21.334 -87 -32.001s-45.334 -21.334 -62.001 -32.001c-26 -16.667 -67.333 -51.334 -124 -104.001l-4 9c0 5.33301 1.33301 12.5 4 21.5s5.83398 18.333 9.50098 28s7.83398 18.667 12.501 27s9 13.833 13 16.5
c-48 32 -72 63.667 -72 95c0 37.333 20.333 82.333 61 135c36 46 90 69 162 69c17.333 0 34 -2.66699 50 -8l-26 -80c-5.33301 7.33301 -25.666 11 -60.999 11c-16.667 0 -33.167 -2.5 -49.5 -7.5s-30.833 -12 -43.5 -21s-22.834 -19.333 -30.501 -31
s-11.5 -24.5 -11.5 -38.5c0 -20.667 15.333 -31 46 -31h55l87.5 25.5z" />
    <glyph glyph-name="alefarabic" unicode="&#x627;" horiz-adv-x="550" arabic-form="isolated" 
d="M438 408l-129 -182v1102l129 156v-1076z" />
    <glyph glyph-name="beharabic" unicode="&#x628;" horiz-adv-x="1203" arabic-form="isolated" 
d="M1193 426c0 -104.667 -19.999 -172.667 -59.999 -204c-15.333 -12 -42 -23.167 -80 -33.5s-87.667 -20.833 -149 -31.5c-59.333 -9.33301 -116.333 -16.5 -171 -21.5s-107.667 -7.5 -159 -7.5c-365.333 0 -548 95.667 -548 287c0 46 12 91.333 36 136
c8 14.667 35 53 81 115c-24.667 -78 -37 -133 -37 -165c0 -93.333 64.333 -155 193 -185c32 -7.33301 73 -12.833 123 -16.5s110 -5.5 180 -5.5c39.333 0 82.166 1.33301 128.499 4s96.833 6.66699 151.5 12c150.667 14.667 226 36.667 226 66c0 33.333 -28 85.333 -84 156
l78 171c60.667 -98.667 91 -191 91 -277zM738.001 -224l-78 -133l-192 111l74 134z" />
    <glyph glyph-name="tehmarbutaarabic" unicode="&#x629;" horiz-adv-x="659" arabic-form="isolated" 
d="M570 449c0 -38.667 -5.66699 -74.332 -17 -106.999s-27.333 -61 -48 -85s-45.167 -42.667 -73.5 -56s-59.5 -20 -93.5 -20c-68.667 0 -149.667 18 -243 54c-50 20 -75 57.333 -75 112c0 34.667 16 90 48 166c32.667 80 62 127.333 88 142
c-17.333 25.333 -26 42.666 -26 51.999c0 39.333 44 99 132 179c0 -33.333 6.66699 -63.833 20 -91.5s33.333 -52.167 60 -73.5c1.33301 -0.666992 5.5 -3.66699 12.5 -9l26 -19.5l33 -24.5l33.5 -25l27.5 -21l15.5 -12c53.333 -42 80 -95.667 80 -161zM455 394.002
c0 15.333 -37 54 -111 116s-119.333 93 -136 93c-7.33301 0 -16 -7.5 -26 -22.5s-19.5 -32.333 -28.5 -52s-16.667 -39 -23 -58s-9.5 -32.5 -9.5 -40.5c0 -6.66699 1.33301 -12.667 4 -18c48.667 -43.333 113 -65 193 -65c91.333 0 137 15.667 137 47zM472 1040l-179 114
l75 121l179 -107zM43 1142l73 126l177 -114l-73 -118z" />
    <glyph glyph-name="teharabic" unicode="&#x62a;" horiz-adv-x="1203" arabic-form="isolated" 
d="M1193 426c0 -104.667 -19.999 -172.667 -59.999 -204c-15.333 -12 -42 -23.167 -80 -33.5s-87.667 -20.833 -149 -31.5c-59.333 -9.33301 -116.333 -16.5 -171 -21.5s-107.667 -7.5 -159 -7.5c-365.333 0 -548 95.667 -548 287c0 46 12 91.333 36 136
c8 14.667 35 53 81 115c-24.667 -78 -37 -133 -37 -165c0 -93.333 64.333 -155 193 -185c32 -7.33301 73 -12.833 123 -16.5s110 -5.5 180 -5.5c39.333 0 82.166 1.33301 128.499 4s96.833 6.66699 151.5 12c150.667 14.667 226 36.667 226 66c0 33.333 -28 85.333 -84 156
l78 171c60.667 -98.667 91 -191 91 -277zM343.001 766l81 125l185 -119l-73 -119zM792.001 655l-183 117l74 121l184 -110z" />
    <glyph glyph-name="theharabic" unicode="&#x62b;" horiz-adv-x="1204" arabic-form="isolated" 
d="M1193 426c0 -104.667 -19.999 -172.667 -59.999 -204c-15.333 -12 -42 -23.167 -80 -33.5s-87.667 -20.833 -149 -31.5c-59.333 -9.33301 -116.333 -16.5 -171 -21.5s-107.667 -7.5 -159 -7.5c-365.333 0 -548 95.667 -548 287c0 46 12 91.333 36 136
c8 14.667 35 53 81 115c-24.667 -78 -37 -133 -37 -165c0 -93.333 64.333 -155 193 -185c32 -7.33301 73 -12.833 123 -16.5s110 -5.5 180 -5.5c39.333 0 82.166 1.33301 128.499 4s96.833 6.66699 151.5 12c150.667 14.667 226 36.667 226 66c0 33.333 -28 85.333 -84 156
l78 171c60.667 -98.667 91 -191 91 -277zM643.001 1047l-78 -143l-193 117l74 136zM333.001 766l74 134l186 -111l-73 -136zM784.001 676l-191 113l67 126l191 -113z" />
    <glyph glyph-name="jeemarabic" unicode="&#x62c;" horiz-adv-x="1098" arabic-form="isolated" 
d="M1053 -209c-50 -63.333 -136.003 -121.333 -258.003 -174c-60 -26.667 -115 -46.834 -165 -60.501s-96 -20.167 -138 -19.5c-133.333 0 -241.666 61.667 -324.999 185c-72 106.667 -108 231.334 -108 374.001c0 157.333 60.667 315.666 182 474.999l20.5 29l29.5 42
c-22 8.66699 -46.333 13 -73 13c-12 0 -27 -1.83301 -45 -5.5s-36.333 -8.66699 -55 -15s-36.667 -13.5 -54 -21.5c-15.333 -6.66699 -27.666 -13.667 -36.999 -21c14.667 16 32 45.333 52 88c14 30 27.833 54.333 41.5 73s28.5 33.334 44.5 44.001s33.5 18 52.5 22
s41.167 6 66.5 6c14.667 0 36.834 -2.5 66.501 -7.5l93.5 -16l93.5 -16c29.667 -5 51.834 -7.5 66.501 -7.5c91.333 0 183 16.667 275 50l-41 -186c-6 0.666992 -13.5 1.16699 -22.5 1.5s-19.5 0.5 -31.5 0.5c-97.333 0 -185.333 -13.167 -264 -39.5
s-145.834 -64 -201.501 -113s-98.5 -108.5 -128.5 -178.5s-45 -148.667 -45 -236c0 -236.667 154.667 -355 464 -355c144 0 292 23 444 69zM664.997 98l-75 -142l-185 107l74 141z" />
    <glyph glyph-name="haharabic" unicode="&#x62d;" horiz-adv-x="1098" arabic-form="isolated" 
d="M1053 -209c-50 -63.333 -136.003 -121.333 -258.003 -174c-60 -26.667 -115 -46.834 -165 -60.501s-96 -20.167 -138 -19.5c-133.333 0 -241.666 61.667 -324.999 185c-72 106.667 -108 231.334 -108 374.001c0 157.333 60.667 315.666 182 474.999l20.5 29l29.5 42
c-22 8.66699 -46.333 13 -73 13c-12 0 -27 -1.83301 -45 -5.5s-36.333 -8.66699 -55 -15s-36.667 -13.5 -54 -21.5c-15.333 -6.66699 -27.666 -13.667 -36.999 -21c14.667 16 32 45.333 52 88c14 30 27.833 54.333 41.5 73s28.5 33.334 44.5 44.001s33.5 18 52.5 22
s41.167 6 66.5 6c14.667 0 36.834 -2.5 66.501 -7.5l93.5 -16l93.5 -16c29.667 -5 51.834 -7.5 66.501 -7.5c91.333 0 183 16.667 275 50l-41 -186c-6 0.666992 -13.5 1.16699 -22.5 1.5s-19.5 0.5 -31.5 0.5c-97.333 0 -185.333 -13.167 -264 -39.5
s-145.834 -64 -201.501 -113s-98.5 -108.5 -128.5 -178.5s-45 -148.667 -45 -236c0 -236.667 154.667 -355 464 -355c144 0 292 23 444 69z" />
    <glyph glyph-name="khaharabic" unicode="&#x62e;" horiz-adv-x="1098" arabic-form="isolated" 
d="M1053 -209c-50 -63.333 -136.003 -121.333 -258.003 -174c-60 -26.667 -115 -46.834 -165 -60.501s-96 -20.167 -138 -19.5c-133.333 0 -241.666 61.667 -324.999 185c-72 106.667 -108 231.334 -108 374.001c0 157.333 60.667 315.666 182 474.999l20.5 29l29.5 42
c-22 8.66699 -46.333 13 -73 13c-12 0 -27 -1.83301 -45 -5.5s-36.333 -8.66699 -55 -15s-36.667 -13.5 -54 -21.5c-15.333 -6.66699 -27.666 -13.667 -36.999 -21c14.667 16 32 45.333 52 88c14 30 27.833 54.333 41.5 73s28.5 33.334 44.5 44.001s33.5 18 52.5 22
s41.167 6 66.5 6c14.667 0 36.834 -2.5 66.501 -7.5l93.5 -16l93.5 -16c29.667 -5 51.834 -7.5 66.501 -7.5c91.333 0 183 16.667 275 50l-41 -186c-6 0.666992 -13.5 1.16699 -22.5 1.5s-19.5 0.5 -31.5 0.5c-97.333 0 -185.333 -13.167 -264 -39.5
s-145.834 -64 -201.501 -113s-98.5 -108.5 -128.5 -178.5s-45 -148.667 -45 -236c0 -236.667 154.667 -355 464 -355c144 0 292 23 444 69zM658.997 1209l-85 -136l-188 122l88 128z" />
    <glyph glyph-name="dalarabic" unicode="&#x62f;" horiz-adv-x="767" arabic-form="isolated" 
d="M756 331c0 -24.667 -1.83105 -44.834 -5.49805 -60.501s-12.334 -28.834 -26.001 -39.501s-34.167 -19.5 -61.5 -26.5s-65 -14.167 -113 -21.5c-80.667 -12 -153.334 -18 -218.001 -18c-67.333 0 -112.666 7 -135.999 21c-30.667 18.667 -46 60 -46 124
c0 10 1.66699 25.5 5 46.5s7.5 41.833 12.5 62.5s10.833 38.834 17.5 54.501s13 23.5 19 23.5c1.33301 0 2.33301 -0.333008 3 -1v-63c0 -42.667 4.33301 -67 13 -73c27.333 -15.333 74.333 -23 141 -23c23.333 0 48.666 1 75.999 3s57 5.33301 89 10
c86.667 12 130 28.333 130 49c0 28.667 -19.333 97 -58 205c-39.333 112.667 -67 171.334 -83 176.001l95 197c10.667 -2.66699 37 -85.667 79 -249c44.667 -174.667 67 -307 67 -397z" />
    <glyph glyph-name="thalarabic" unicode="&#x630;" horiz-adv-x="767" arabic-form="isolated" 
d="M756 331c0 -24.667 -1.83105 -44.834 -5.49805 -60.501s-12.334 -28.834 -26.001 -39.501s-34.167 -19.5 -61.5 -26.5s-65 -14.167 -113 -21.5c-80.667 -12 -153.334 -18 -218.001 -18c-67.333 0 -112.666 7 -135.999 21c-30.667 18.667 -46 60 -46 124
c0 10 1.66699 25.5 5 46.5s7.5 41.833 12.5 62.5s10.833 38.834 17.5 54.501s13 23.5 19 23.5c1.33301 0 2.33301 -0.333008 3 -1v-63c0 -42.667 4.33301 -67 13 -73c27.333 -15.333 74.333 -23 141 -23c23.333 0 48.666 1 75.999 3s57 5.33301 89 10
c86.667 12 130 28.333 130 49c0 28.667 -19.333 97 -58 205c-39.333 112.667 -67 171.334 -83 176.001l95 197c10.667 -2.66699 37 -85.667 79 -249c44.667 -174.667 67 -307 67 -397zM587.002 1268l-80 -143l-187 108l81 141z" />
    <glyph glyph-name="reharabic" unicode="&#x631;" horiz-adv-x="767" arabic-form="isolated" 
d="M767 269c0 -144.667 -57.335 -267.998 -172.002 -369.998c-98.667 -88 -194 -132 -286 -132c-116 0 -231 78.333 -345 235c8.66699 -10.667 23 -20.667 43 -30c22 -10 49.667 -19.667 83 -29c28.667 -8 55.334 -13.833 80.001 -17.5s47.334 -5.5 68.001 -5.5
c183.333 0 327.333 99 432 297c7.33301 14.667 11 29 11 43c0 77.333 -57.333 156 -172 236l74 161c27.333 -17.333 52.333 -39.833 75 -67.5s42 -58.834 58 -93.501s28.5 -71.334 37.5 -110.001s13.5 -77.667 13.5 -117zM-36.002 2.00195
c-1.33301 1.33301 -2.33301 2.66602 -3 3.99902c1.33301 -1.33301 2.33301 -2.66602 3 -3.99902z" />
    <glyph glyph-name="zainarabic" unicode="&#x632;" horiz-adv-x="767" arabic-form="isolated" 
d="M767 269c0 -144.667 -57.335 -267.998 -172.002 -369.998c-98.667 -88 -194 -132 -286 -132c-116 0 -231 78.333 -345 235c8.66699 -10.667 23 -20.667 43 -30c22 -10 49.667 -19.667 83 -29c28.667 -8 55.334 -13.833 80.001 -17.5s47.334 -5.5 68.001 -5.5
c183.333 0 327.333 99 432 297c7.33301 14.667 11 29 11 43c0 77.333 -57.333 156 -172 236l74 161c27.333 -17.333 52.333 -39.833 75 -67.5s42 -58.834 58 -93.501s28.5 -71.334 37.5 -110.001s13.5 -77.667 13.5 -117zM503.998 1082l-88 -137l-182 121l84 129z
M-36.002 2.00195c-1.33301 1.33301 -2.33301 2.66602 -3 3.99902c1.33301 -1.33301 2.33301 -2.66602 3 -3.99902z" />
    <glyph glyph-name="seenarabic" unicode="&#x633;" horiz-adv-x="1716" arabic-form="isolated" 
d="M1680 430c0 -132 -7.66211 -199.004 -22.9951 -201.004c-15.333 -1.33301 -34.333 -2.66602 -57 -3.99902s-50 -2 -82 -2c-62.667 0 -118.834 4.16699 -168.501 12.5s-92.5 20.833 -128.5 37.5c-6 2 -9 3.66699 -9 5v1c-31.333 -26 -66.666 -41.667 -105.999 -47
c-14.667 -2 -54 -3 -118 -3c0 -125.333 -62 -231 -186 -317c-109.333 -75.333 -230 -114.333 -362 -117l-38 -2c-4.66699 0 -9.33398 -0.166992 -14.001 -0.5s-9.33398 -0.5 -14.001 -0.5c-240 0 -360 88.667 -360 266c0 66.667 21 147.334 63 242.001
c39.333 87.333 84 159.666 134 216.999c-12.667 -17.333 -25 -39.666 -37 -66.999s-22.667 -56.166 -32 -86.499s-16.833 -60.166 -22.5 -89.499s-8.5 -54.666 -8.5 -75.999c0 -164.667 106.667 -247 320 -247c60 0 122.5 9.5 187.5 28.5s127.833 46.5 188.5 82.5
c17.333 10 31 18.667 41 26s16.667 14.666 20 21.999c8.66699 19.333 13 43.666 13 72.999c0 26 -3.16699 54 -9.5 84s-14.833 59.333 -25.5 88s-23.334 55.167 -38.001 79.5s-30 43.5 -46 57.5l132 156c42 -81.333 71.667 -160.666 89 -237.999
c5.33301 -21.333 40 -32 104 -32c53.333 0 87 8 101 24c12.667 13.333 19 48.333 19 105c0 22 -2.66699 37.333 -8 46l118 118c0.666992 -11.333 1.16699 -26.166 1.5 -44.499s0.5 -39.833 0.5 -64.5c0 -57.333 -8.33301 -106 -25 -146c-2 -2.66699 -3 -5.33398 -3 -8.00098
c0 -20 38 -30 114 -30c30 0 54.667 0.833008 74 2.5s34.666 4.5 45.999 8.5s19.166 9.66699 23.499 17s6.5 16.333 6.5 27c0 61.333 -16 104.333 -48 129l141 125c21.333 -17.333 32 -103 32 -257z" />
    <glyph glyph-name="sheenarabic" unicode="&#x634;" horiz-adv-x="1696" arabic-form="isolated" 
d="M1680 430c0 -132 -7.66211 -199.004 -22.9951 -201.004c-15.333 -1.33301 -34.333 -2.66602 -57 -3.99902s-50 -2 -82 -2c-62.667 0 -118.834 4.16699 -168.501 12.5s-92.5 20.833 -128.5 37.5c-6 2 -9 3.66699 -9 5v1c-31.333 -26 -66.666 -41.667 -105.999 -47
c-14.667 -2 -54 -3 -118 -3c0 -125.333 -62 -231 -186 -317c-109.333 -75.333 -230 -114.333 -362 -117l-38 -2c-4.66699 0 -9.33398 -0.166992 -14.001 -0.5s-9.33398 -0.5 -14.001 -0.5c-240 0 -360 88.667 -360 266c0 66.667 21 147.334 63 242.001
c39.333 87.333 84 159.666 134 216.999c-12.667 -17.333 -25 -39.666 -37 -66.999s-22.667 -56.166 -32 -86.499s-16.833 -60.166 -22.5 -89.499s-8.5 -54.666 -8.5 -75.999c0 -164.667 106.667 -247 320 -247c60 0 122.5 9.5 187.5 28.5s127.833 46.5 188.5 82.5
c17.333 10 31 18.667 41 26s16.667 14.666 20 21.999c8.66699 19.333 13 43.666 13 72.999c0 26 -3.16699 54 -9.5 84s-14.833 59.333 -25.5 88s-23.334 55.167 -38.001 79.5s-30 43.5 -46 57.5l132 156c42 -81.333 71.667 -160.666 89 -237.999
c5.33301 -21.333 40 -32 104 -32c53.333 0 87 8 101 24c12.667 13.333 19 48.333 19 105c0 22 -2.66699 37.333 -8 46l118 118c0.666992 -11.333 1.16699 -26.166 1.5 -44.499s0.5 -39.833 0.5 -64.5c0 -57.333 -8.33301 -106 -25 -146c-2 -2.66699 -3 -5.33398 -3 -8.00098
c0 -20 38 -30 114 -30c30 0 54.667 0.833008 74 2.5s34.666 4.5 45.999 8.5s19.166 9.66699 23.499 17s6.5 16.333 6.5 27c0 61.333 -16 104.333 -48 129l141 125c21.333 -17.333 32 -103 32 -257zM1038 951.996l93 121l165 -118l-93 -123zM1364 1211l-91 -118l-158 114
l88 121zM1458 840.996l-162 114l89 118l159 -107z" />
    <glyph glyph-name="sadarabic" unicode="&#x635;" horiz-adv-x="2086" arabic-form="isolated" 
d="M2068 393c0 -48.667 -11.9971 -95.001 -35.9971 -139.001c-10.667 -18.667 -75.667 -28 -195 -28h-849c0 -126.667 -62 -232 -186 -316c-108 -74 -228.667 -112.333 -362 -115l-38 -2c-4.66699 0 -9.33398 -0.166992 -14.001 -0.5s-9.33398 -0.5 -14.001 -0.5
c-240 0 -360 88.667 -360 266c0 66.667 21 147.334 63 242.001c39.333 87.333 84 159.666 134 216.999c-12.667 -17.333 -25 -39.666 -37 -66.999s-22.667 -56.166 -32 -86.499s-16.833 -60.166 -22.5 -89.499s-8.5 -54.666 -8.5 -75.999c0 -164.667 106.667 -247 320 -247
c60 0 122.5 9.5 187.5 28.5s127.833 46.5 188.5 82.5c17.333 10 31 18.667 41 26s16.667 14.666 20 21.999c8.66699 19.333 13 43.666 13 72.999c0 26 -3.16699 54 -9.5 84s-14.833 59.333 -25.5 88s-23.334 55.167 -38.001 79.5s-30 43.5 -46 57.5l132 156
c20 -20 40.333 -61 61 -123c19.333 -56.667 29 -98.334 29 -125.001c0 -2 -0.166992 -4 -0.5 -6s-0.5 -3.66699 -0.5 -5h91c24 0 73.333 29.667 148 89c110 88 182.667 143.667 218 167c90 60 164.333 90 223 90c23.333 0 48 -5.66699 74 -17
c220.667 -96.667 331 -205 331 -325zM1951 398.999c0 26.667 -45 63.334 -135 110.001c-84.667 44 -145 66 -181 66c-36.667 0 -110 -26.667 -220 -80c-112.667 -54.667 -169 -94.334 -169 -119.001c7.33301 -3.33301 43.5 -6.5 108.5 -9.5s160.167 -4.5 285.5 -4.5
c207.333 0 311 12.333 311 37z" />
    <glyph glyph-name="dadarabic" unicode="&#x636;" horiz-adv-x="2086" arabic-form="isolated" 
d="M2068 393c0 -48.667 -11.9971 -95.001 -35.9971 -139.001c-10.667 -18.667 -75.667 -28 -195 -28h-849c0 -126.667 -62 -232 -186 -316c-108 -74 -228.667 -112.333 -362 -115l-38 -2c-4.66699 0 -9.33398 -0.166992 -14.001 -0.5s-9.33398 -0.5 -14.001 -0.5
c-240 0 -360 88.667 -360 266c0 66.667 21 147.334 63 242.001c39.333 87.333 84 159.666 134 216.999c-12.667 -17.333 -25 -39.666 -37 -66.999s-22.667 -56.166 -32 -86.499s-16.833 -60.166 -22.5 -89.499s-8.5 -54.666 -8.5 -75.999c0 -164.667 106.667 -247 320 -247
c60 0 122.5 9.5 187.5 28.5s127.833 46.5 188.5 82.5c17.333 10 31 18.667 41 26s16.667 14.666 20 21.999c8.66699 19.333 13 43.666 13 72.999c0 26 -3.16699 54 -9.5 84s-14.833 59.333 -25.5 88s-23.334 55.167 -38.001 79.5s-30 43.5 -46 57.5l132 156
c20 -20 40.333 -61 61 -123c19.333 -56.667 29 -98.334 29 -125.001c0 -2 -0.166992 -4 -0.5 -6s-0.5 -3.66699 -0.5 -5h91c24 0 73.333 29.667 148 89c110 88 182.667 143.667 218 167c90 60 164.333 90 223 90c23.333 0 48 -5.66699 74 -17
c220.667 -96.667 331 -205 331 -325zM1951 398.999c0 26.667 -45 63.334 -135 110.001c-84.667 44 -145 66 -181 66c-36.667 0 -110 -26.667 -220 -80c-112.667 -54.667 -169 -94.334 -169 -119.001c7.33301 -3.33301 43.5 -6.5 108.5 -9.5s160.167 -4.5 285.5 -4.5
c207.333 0 311 12.333 311 37zM1718 1131l-78 -144l-199 118l86 145z" />
    <glyph glyph-name="taharabic" unicode="&#x637;" horiz-adv-x="1122" arabic-form="isolated" 
d="M1122 280c0 -36 -22.333 -54 -67 -54h-990l-56 163c15.333 -3.33301 42.333 -5 81 -5c114.667 0 196.667 17.667 246 53v722l-39 180l116 145l14 -175l80 -84l-72 -141v-585c6.66699 16 50 54.333 130 115c98.667 74.667 184 112 256 112c24 0 47 -5 69 -15
c100.667 -42.667 162 -77 184 -103c32 -36.667 48 -102.667 48 -198v-130zM1035 410c0 45.333 -39 83.333 -117 114c-62 24.667 -119.667 37 -173 37c-30.667 0 -84.667 -23 -162 -69c-76.667 -46 -115 -80.667 -115 -104c0 -11.333 76.333 -17 229 -17
c225.333 0 338 13 338 39z" />
    <glyph glyph-name="zaharabic" unicode="&#x638;" horiz-adv-x="1122" arabic-form="isolated" 
d="M1122 280c0 -36 -22.333 -54 -67 -54h-990l-56 163c15.333 -3.33301 42.333 -5 81 -5c114.667 0 196.667 17.667 246 53v722l-39 180l116 145l14 -175l80 -84l-72 -141v-585c6.66699 16 50 54.333 130 115c98.667 74.667 184 112 256 112c24 0 47 -5 69 -15
c100.667 -42.667 162 -77 184 -103c32 -36.667 48 -102.667 48 -198v-130zM1035 410c0 45.333 -39 83.333 -117 114c-62 24.667 -119.667 37 -173 37c-30.667 0 -84.667 -23 -162 -69c-76.667 -46 -115 -80.667 -115 -104c0 -11.333 76.333 -17 229 -17
c225.333 0 338 13 338 39zM951 1093l-82 -144l-199 115l75 140z" />
    <glyph glyph-name="ainarabic" unicode="&#x639;" horiz-adv-x="1098" arabic-form="isolated" 
d="M1012 -259c-38 -75.333 -122.332 -135.998 -252.999 -181.998c-110.667 -39.333 -217 -59 -319 -59c-62.667 0 -119.667 9.83301 -171 29.5s-95.333 47.167 -132 82.5s-65 77.5 -85 126.5s-30 103.167 -30 162.5c0 69.333 14.833 145 44.5 227
s70.834 165.667 123.501 251c15.333 24 29.666 43.167 42.999 57.5s25.333 24.5 36 30.5c-98.667 32.667 -148 96 -148 190c0 64.667 24 134 72 208c53.333 82 110.333 123 171 123c17.333 0 37 -5.33301 59 -16s42.667 -24.334 62 -41.001s35.666 -34.834 48.999 -54.501
s20 -38.5 20 -56.5c-0.666992 -2.66699 -2 -4 -4 -4c-36.667 18 -82.334 27 -137.001 27c-21.333 0 -43 -3 -65 -9s-42 -14.167 -60 -24.5s-32.667 -22.5 -44 -36.5s-17 -28.667 -17 -44s5.5 -30.333 16.5 -45s24.667 -27.667 41 -39s34.333 -20.333 54 -27
s37.834 -10 54.501 -10c39.333 0 92.333 16 159 48c6 3.33301 21.333 11.333 46 24l103 53l-31 -175h-6c-22 0 -73 -22 -153 -66c-266.667 -146 -400 -327 -400 -543c0 -36.667 4 -73 12 -109c26 -114.667 162 -172 408 -172c30 0 66.167 1.5 108.5 4.5
s91.5 7.83301 147.5 14.5c134 16 209 34 225 54z" />
    <glyph glyph-name="ghainarabic" unicode="&#x63a;" horiz-adv-x="1098" arabic-form="isolated" 
d="M1012 -259c-38 -75.333 -122.332 -135.998 -252.999 -181.998c-110.667 -39.333 -217 -59 -319 -59c-62.667 0 -119.667 9.83301 -171 29.5s-95.333 47.167 -132 82.5s-65 77.5 -85 126.5s-30 103.167 -30 162.5c0 69.333 14.833 145 44.5 227
s70.834 165.667 123.501 251c15.333 24 29.666 43.167 42.999 57.5s25.333 24.5 36 30.5c-98.667 32.667 -148 96 -148 190c0 64.667 24 134 72 208c53.333 82 110.333 123 171 123c17.333 0 37 -5.33301 59 -16s42.667 -24.334 62 -41.001s35.666 -34.834 48.999 -54.501
s20 -38.5 20 -56.5c-0.666992 -2.66699 -2 -4 -4 -4c-36.667 18 -82.334 27 -137.001 27c-21.333 0 -43 -3 -65 -9s-42 -14.167 -60 -24.5s-32.667 -22.5 -44 -36.5s-17 -28.667 -17 -44s5.5 -30.333 16.5 -45s24.667 -27.667 41 -39s34.333 -20.333 54 -27
s37.834 -10 54.501 -10c39.333 0 92.333 16 159 48c6 3.33301 21.333 11.333 46 24l103 53l-31 -175h-6c-22 0 -73 -22 -153 -66c-266.667 -146 -400 -327 -400 -543c0 -36.667 4 -73 12 -109c26 -114.667 162 -172 408 -172c30 0 66.167 1.5 108.5 4.5
s91.5 7.83301 147.5 14.5c134 16 209 34 225 54zM536.001 1283l-81 -136l-189 117l83 138z" />
    <glyph glyph-name="feharabic" unicode="&#x641;" horiz-adv-x="1473" arabic-form="isolated" 
d="M1458 449c0 -144.667 -17.668 -218.999 -53.001 -222.999c-120 -13.333 -244 -23.5 -372 -30.5s-261.333 -10.5 -400 -10.5c-321.333 0 -505.666 37 -552.999 111c-44 70 -66 138.333 -66 205c0 44 8.66699 85 26 123c5.33301 11.333 27 47.666 65 108.999
c-12 -94.667 -18 -148 -18 -160c0 -62 24.667 -112.667 74 -152c55.333 -43.333 231.333 -65 528 -65c68.667 0 172.334 3 311.001 9c174 7.33301 265 15.333 273 24l-161 74c-58.667 36.667 -88 83.334 -88 140.001c0 56 28 125.333 84 208c59.333 88 115.333 132 168 132
c66 0 115.667 -68.667 149 -206c11.333 -46.667 19.666 -93.834 24.999 -141.501s8 -96.5 8 -146.5zM1383 517.001c0 35.333 -17 86.333 -51 153c-37.333 73.333 -71.666 110 -102.999 110c-7.33301 0 -17.333 -4.83301 -30 -14.5s-25.334 -21.334 -38.001 -35.001
s-24 -27.667 -34 -42s-16.333 -26.166 -19 -35.499l272 -147c2 2 3 5.66699 3 11zM1335 1222l-77 -136l-198 117l82 136z" />
    <glyph glyph-name="qafarabic" unicode="&#x642;" horiz-adv-x="1031" arabic-form="isolated" 
d="M1017 225c0 -104 -21.333 -182.336 -64 -235.003c-62 -76 -146.333 -137.333 -253 -184c-52 -23.333 -103.5 -41 -154.5 -53s-101.5 -17.667 -151.5 -17c-58 0 -110.167 8.33301 -156.5 25s-85.666 40.834 -117.999 72.501s-57.333 70.334 -75 116.001
s-26.5 97.5 -26.5 155.5c0 56.667 11 121.334 33 194.001c25.333 82.667 53.666 140 84.999 172c-37.333 -71.333 -56 -168 -56 -290c0 -179.333 81.333 -269 244 -269c128 0 245 14.667 351 44c160 43.333 240 113 240 209c0 16 -3.33301 36.333 -10 61
c-19.333 -2.66699 -37.333 -4.5 -54 -5.5s-31.667 -1.5 -45 -1.5c-160.667 0 -241 60.667 -241 182c0 62 20.333 135 61 219c46 95.333 95.333 143 148 143c75.333 0 137.333 -73.333 186 -220c38 -114.667 57 -220.667 57 -318zM864 951.997l-173 115l74 131l182 -110z
M438 1051l77 133l176 -117l-69 -122zM890 396.997c0 26.667 -20.333 63.667 -61 111c-40.667 48 -73.667 72 -99 72c-6.66699 0 -13.5 -3.5 -20.5 -10.5s-13.333 -16 -19 -27s-10.167 -23 -13.5 -36s-5 -25.5 -5 -37.5c0 -56.667 43.667 -85 131 -85c38 0 67 3.33301 87 10
v3z" />
    <glyph glyph-name="kafarabic" unicode="&#x643;" horiz-adv-x="1024" arabic-form="isolated" 
d="M821 423c-0.666992 -2 -1 -3.99902 -1 -5.99902s-0.333008 -3.66699 -1 -5v745l-22.5 86.5l-24.5 95.5l143 145l14 -175l78 -84l-65 -141v-674c0 -36.667 -0.333008 -66.334 -1 -89.001s-1.66699 -38.334 -3 -47.001c-6 -35.333 -73 -65 -201 -89
c-49.333 -9.33301 -94.5 -16.333 -135.5 -21s-78.5 -7 -112.5 -7c-344.667 0 -517 87.333 -517 262c0 62 21.667 131.333 65 208c34 61.333 55.667 92 65 92l3 -1v-7c0 -8 -1.16699 -20.167 -3.5 -36.5s-5 -33.666 -8 -51.999s-5.66699 -36 -8 -53s-3.5 -29.5 -3.5 -37.5
c0 -38.667 1.66699 -64 5 -76c22 -83.333 154.667 -125 398 -125c46.667 0 101.334 4 164.001 12c38 5.33301 69.833 11.333 95.5 18s45.167 13.667 58.5 21c7.33301 4 12.666 14 15.999 30c0.666992 -2.66699 1 -6 1 -10zM598 809.001
c0 -134 -82.332 -200.999 -246.999 -200.999c-18.667 0 -32.667 2 -42 6c133.333 53.333 200 89.666 200 108.999c0 5.33301 -4.83301 8.83301 -14.5 10.5s-21 2.83398 -34 3.50098s-26.167 1.5 -39.5 2.5s-23.333 3.83301 -30 8.5c-12.667 8.66699 -19 26 -19 52
c0 15.333 4.66699 33.166 14 53.499s23.333 44.833 42 73.5c39.333 60 71.333 90 96 90h2l-45.5 -87c-13 -24.667 -23.167 -45.667 -30.5 -63c11.333 -11.333 33.666 -19.333 66.999 -24c46.667 -6 72 -10 76 -12c3.33301 -4.66699 5 -12 5 -22z" />
    <glyph glyph-name="lamarabic" unicode="&#x644;" horiz-adv-x="893" arabic-form="isolated" 
d="M886 1225l-66.9971 -141v-855c0 -79.333 -55.333 -158 -166 -236c-100 -70 -206.667 -105 -320 -105c-54 0 -103.333 9.16699 -148 27.5s-83 43.833 -115 76.5s-56.667 71.667 -74 117s-26 95 -26 149c0 79.333 15 157.333 45 234c14 36 26.167 61.667 36.5 77
s18.833 23 25.5 23c0 -10.667 -1.33301 -26.667 -4 -48s-5.83398 -43.833 -9.50098 -67.5s-6.83398 -46.167 -9.50098 -67.5s-4 -37.666 -4 -48.999c0 -112 34 -193.667 102 -245c75.333 -56 148.666 -84 219.999 -84c29.333 0 59.833 6 91.5 18s61.667 27.667 90 47
s54 41.666 77 66.999s40.5 51.333 52.5 78v918l-34 180l143 145l14 -175z" />
    <glyph glyph-name="meemarabic" unicode="&#x645;" horiz-adv-x="765" arabic-form="isolated" 
d="M756 360l-44.002 -137.001c-36 3.33301 -75.333 5.83301 -118 7.5s-90 2.5 -142 2.5c-215.333 0 -323.333 -18.333 -324 -55l8 -31c2 -6.66699 5.66699 -21.167 11 -43.5l21 -91.5c18 -79.333 31.833 -150.833 41.5 -214.5s14.167 -120.167 13.5 -169.5
c0 -61.333 -22.333 -130.666 -67 -207.999c-9.33301 102 -21.333 197.833 -36 287.5s-32 173.834 -52 252.501c-13.333 54 -23.666 99.667 -30.999 137s-11 66.666 -11 87.999c0 75.333 23 126 69 152c26 14.667 84.333 28.334 175 41.001c80 12 137.333 18 172 18
c12.667 0 22 -1 28 -3l-143 160l-186 -97l2 61c0.666992 19.333 31.667 59 93 119s102.333 90 123 90c28.667 0 75.334 -41 140.001 -123c80.667 -102.667 126 -158 136 -166c13.333 -10.667 30 -22.334 50 -35.001s43.667 -26.667 71 -42z" />
    <glyph glyph-name="noonarabic" unicode="&#x646;" horiz-adv-x="1003" arabic-form="isolated" 
d="M988 294l0.00292969 -64.9971c0 -128 -61.667 -234 -185 -318c-108.667 -74.667 -229.667 -113.334 -363 -116.001l-38 -2c-4.66699 0 -9.33398 -0.166992 -14.001 -0.5s-9.33398 -0.5 -14.001 -0.5c-240 0 -360 88.667 -360 266c0 66.667 21 147.334 63 242.001
c39.333 87.333 84 159.666 134 216.999c-12.667 -17.333 -25 -39.5 -37 -66.5s-22.667 -55.5 -32 -85.5s-16.833 -59.833 -22.5 -89.5s-8.5 -55.5 -8.5 -77.5c0 -164.667 106.667 -247 320 -247c60 0 122.5 9.5 187.5 28.5s127.833 46.5 188.5 82.5
c17.333 10 31 18.667 41 26s16.667 14.666 20 21.999c8.66699 19.333 13 43.666 13 72.999c0 26 -3.16699 54 -9.5 84s-14.833 59.333 -25.5 88s-23.334 55.167 -38.001 79.5s-30 43.5 -46 57.5l132 156c62.667 -82.667 94 -200.667 94 -354zM628.003 995.003l-82 -141
l-195 123l84 135z" />
    <glyph glyph-name="heharabic" unicode="&#x647;" horiz-adv-x="659" arabic-form="isolated" 
d="M570 449c0 -38.667 -5.66699 -74.332 -17 -106.999s-27.333 -61 -48 -85s-45.167 -42.667 -73.5 -56s-59.5 -20 -93.5 -20c-68.667 0 -149.667 18 -243 54c-50 20 -75 57.333 -75 112c0 34.667 16 90 48 166c32.667 80 62 127.333 88 142
c-17.333 25.333 -26 42.666 -26 51.999c0 39.333 44 99 132 179c0 -33.333 6.66699 -63.833 20 -91.5s33.333 -52.167 60 -73.5c1.33301 -0.666992 5.5 -3.66699 12.5 -9l26 -19.5l33 -24.5l33.5 -25l27.5 -21l15.5 -12c53.333 -42 80 -95.667 80 -161zM455 394.002
c0 15.333 -37 54 -111 116s-119.333 93 -136 93c-7.33301 0 -16 -7.5 -26 -22.5s-19.5 -32.333 -28.5 -52s-16.667 -39 -23 -58s-9.5 -32.5 -9.5 -40.5c0 -6.66699 1.33301 -12.667 4 -18c48.667 -43.333 113 -65 193 -65c91.333 0 137 15.667 137 47z" />
    <glyph glyph-name="wawarabic" unicode="&#x648;" horiz-adv-x="738" arabic-form="isolated" 
d="M738 383c0 -148.667 -35.333 -278.334 -106 -389.001c-82 -128 -193.333 -192 -334 -192c-101.333 0 -181.666 23.667 -240.999 71c-26 21.333 -50.5 49.833 -73.5 85.5s-44.167 78.5 -63.5 128.5c16 -32.667 63 -68.667 141 -108c73.333 -37.333 131 -56 173 -56
c44 0 87.333 7.66699 130 23s82 36.333 118 63s67.167 58.334 93.5 95.001s45.166 76 56.499 118c-4 -0.666992 -8 -1.16699 -12 -1.5s-8 -0.5 -12 -0.5c-34.667 0 -67.667 6.33301 -99 19s-59 30 -83 52s-43 47.667 -57 77s-21 60.333 -21 93c0 52 23.667 113.667 71 185
c51.333 75.333 101.333 113 150 113c14 0 29.333 -6 46 -18c82 -56.667 123 -176 123 -358zM649 409c0 18 -3.16602 36.333 -9.49902 55s-14.833 35.334 -25.5 50.001s-23.334 26.667 -38.001 36s-30.334 14 -47.001 14c-9.33301 0 -18.5 -2.83301 -27.5 -8.5
s-17.167 -13 -24.5 -22s-13.166 -18.833 -17.499 -29.5s-6.5 -21 -6.5 -31c0 -10.667 5.5 -21.167 16.5 -31.5s24.833 -19.333 41.5 -27s35 -13.834 55 -18.501s39 -7 57 -7c17.333 0 26 6.66699 26 20z" />
    <glyph glyph-name="alefmaksuraarabic" unicode="&#x649;" horiz-adv-x="1204" arabic-form="isolated" 
d="M1192 694c0 -42 -22.6689 -97.333 -68.002 -166c-32 36.667 -59.333 55 -82 55c-48 0 -123.333 -27.333 -226 -82c-108.667 -56.667 -163 -104.334 -163 -143.001c0 -14.667 41 -29.667 123 -45c65.333 -11.333 116.833 -20.666 154.5 -27.999
s61.834 -12.666 72.501 -15.999c42 -11.333 72.333 -23.666 91 -36.999s28 -29 28 -47l-9 -145c-4 -70.667 -109.333 -141.667 -316 -213c-178.667 -62 -315 -93 -409 -93c-53.333 0 -102 7.83301 -146 23.5s-81.5 38.334 -112.5 68.001s-55 66 -72 109
s-25.5 91.833 -25.5 146.5c0 89.333 28.333 194.666 85 315.999c61.333 130.667 127 215 197 253c-38.667 -38.667 -78.667 -116.667 -120 -234c-19.333 -56 -34.166 -105.333 -44.499 -148s-15.5 -79.334 -15.5 -110.001c0 -160.667 102 -241 306 -241
c76 0 176.333 17 301 51c73.333 20.667 130.5 42.167 171.5 64.5s66.167 45.166 75.5 68.499c-158 38 -259 57 -303 57c-85.333 0 -128 33.333 -128 100c0 103.333 64.667 213 194 329c127.333 114 244 171 350 171c60.667 0 91 -21.333 91 -64z" />
    <glyph glyph-name="yeharabic" unicode="&#x64a;" horiz-adv-x="1210" arabic-form="isolated" 
d="M1192 694c0 -42 -22.6689 -97.333 -68.002 -166c-32 36.667 -59.333 55 -82 55c-48 0 -123.333 -27.333 -226 -82c-108.667 -56.667 -163 -104.334 -163 -143.001c0 -14.667 41 -29.667 123 -45c65.333 -11.333 116.833 -20.666 154.5 -27.999
s61.834 -12.666 72.501 -15.999c42 -11.333 72.333 -23.666 91 -36.999s28 -29 28 -47l-9 -145c-4 -70.667 -109.333 -141.667 -316 -213c-178.667 -62 -315 -93 -409 -93c-53.333 0 -102 7.83301 -146 23.5s-81.5 38.334 -112.5 68.001s-55 66 -72 109
s-25.5 91.833 -25.5 146.5c0 89.333 28.333 194.666 85 315.999c61.333 130.667 127 215 197 253c-38.667 -38.667 -78.667 -116.667 -120 -234c-19.333 -56 -34.166 -105.333 -44.499 -148s-15.5 -79.334 -15.5 -110.001c0 -160.667 102 -241 306 -241
c76 0 176.333 17 301 51c73.333 20.667 130.5 42.167 171.5 64.5s66.167 45.166 75.5 68.499c-158 38 -259 57 -303 57c-85.333 0 -128 33.333 -128 100c0 103.333 64.667 213 194 329c127.333 114 244 171 350 171c60.667 0 91 -21.333 91 -64zM170.998 -539l83 122
l178 -117l-78 -126zM603.998 -648l-172 114l75 119l171 -106z" />
    <glyph glyph-name="alefwaslaarabic" unicode="&#x671;" horiz-adv-x="551" arabic-form="isolated" 
d="M311 131v934l129 133v-915zM525 1506c0 -56.667 -20.499 -106 -61.499 -148s-89.5 -63 -145.5 -63c-17.333 0 -43.5 3.83301 -78.5 11.5s-60.833 11.5 -77.5 11.5c-18 0 -36.167 -7 -54.5 -21s-29.5 -29.667 -33.5 -47c-12 6 -18 17 -18 33c0 30 9.66699 60 29 90
c21.333 32.667 46.333 49 75 49c18 0 31 -0.666992 39 -2c95.333 120 172.666 180 231.999 180c62.667 0 94 -31.333 94 -94zM468.001 1455c0 14 -8.66699 27 -26 39s-33.333 18 -48 18c-24 0 -51.667 -11.667 -83 -35c-27.333 -20 -49 -41.667 -65 -65
c24.667 -11.333 57 -17 97 -17c24 0 48.667 4.33301 74 13c34 12 51 27.667 51 47z" />
    <glyph glyph-name="tteharabic" unicode="&#x679;" horiz-adv-x="1203" arabic-form="isolated" 
d="M1193 426c0 -104.667 -19.999 -172.667 -59.999 -204c-15.333 -12 -42 -23.167 -80 -33.5s-87.667 -20.833 -149 -31.5c-59.333 -9.33301 -116.333 -16.5 -171 -21.5s-107.667 -7.5 -159 -7.5c-365.333 0 -548 95.667 -548 287c0 46 12 91.333 36 136
c8 14.667 35 53 81 115c-24.667 -78 -37 -133 -37 -165c0 -93.333 64.333 -155 193 -185c32 -7.33301 73 -12.833 123 -16.5s110 -5.5 180 -5.5c39.333 0 82.166 1.33301 128.499 4s96.833 6.66699 151.5 12c150.667 14.667 226 36.667 226 66c0 33.333 -28 85.333 -84 156
l78 171c60.667 -98.667 91 -191 91 -277zM811.001 697c0 -8 -2.66797 -13.168 -8.00098 -15.501s-11 -3.5 -17 -3.5h-370l-22 60c15.333 -3.33301 29.333 -5 42 -5c30.667 0 57.334 7.66699 80.001 23v270l-14 68l44 56l5 -67l30 -32l-26 -52v-220
c53.333 55.333 101.666 83 144.999 83c10.667 0 21.167 -1.83301 31.5 -5.5s19.833 -7.66699 28.5 -12s15.834 -8.83301 21.501 -13.5s9.16699 -8 10.5 -10c12.667 -13.333 19 -36.666 19 -69.999v-54zM779 744.999c0 7.33301 -3.49805 14.334 -10.498 21.001
s-15.833 12.667 -26.5 18s-22.5 9.66602 -35.5 12.999s-25.833 5 -38.5 5c-6 0 -14 -2.33301 -24 -7s-20.333 -10.334 -31 -17.001s-20.334 -13.667 -29.001 -21s-14.667 -13.666 -18 -18.999c26.667 -2.66699 50.167 -4.5 70.5 -5.5s37.166 -1.5 50.499 -1.5
c61.333 0 92 4.66699 92 14v0z" />
    <glyph glyph-name="peharabic" unicode="&#x67e;" horiz-adv-x="1204" arabic-form="isolated" 
d="M1193 426c0 -104.667 -19.999 -172.667 -59.999 -204c-15.333 -12 -42 -23.167 -80 -33.5s-87.667 -20.833 -149 -31.5c-59.333 -9.33301 -116.333 -16.5 -171 -21.5s-107.667 -7.5 -159 -7.5c-365.333 0 -548 95.667 -548 287c0 46 12 91.333 36 136
c8 14.667 35 53 81 115c-24.667 -78 -37 -133 -37 -165c0 -93.333 64.333 -155 193 -185c32 -7.33301 73 -12.833 123 -16.5s110 -5.5 180 -5.5c39.333 0 82.166 1.33301 128.499 4s96.833 6.66699 151.5 12c150.667 14.667 226 36.667 226 66c0 33.333 -28 85.333 -84 156
l78 171c60.667 -98.667 91 -191 91 -277zM343.001 -167l92 120l166 -119l-92 -123zM791.001 -412l-91 -118l-160 113l88 123zM762.001 -281l-161 115l89 119l157 -109z" />
    <glyph glyph-name="tcheharabic" unicode="&#x686;" horiz-adv-x="1098" arabic-form="isolated" 
d="M1053 -209c-50 -63.333 -136.003 -121.333 -258.003 -174c-60 -26.667 -115 -46.834 -165 -60.501s-96 -20.167 -138 -19.5c-133.333 0 -241.666 61.667 -324.999 185c-72 106.667 -108 231.334 -108 374.001c0 157.333 60.667 315.666 182 474.999l20.5 29l29.5 42
c-22 8.66699 -46.333 13 -73 13c-12 0 -27 -1.83301 -45 -5.5s-36.333 -8.66699 -55 -15s-36.667 -13.5 -54 -21.5c-15.333 -6.66699 -27.666 -13.667 -36.999 -21c14.667 16 32 45.333 52 88c14 30 27.833 54.333 41.5 73s28.5 33.334 44.5 44.001s33.5 18 52.5 22
s41.167 6 66.5 6c14.667 0 36.834 -2.5 66.501 -7.5l93.5 -16l93.5 -16c29.667 -5 51.834 -7.5 66.501 -7.5c91.333 0 183 16.667 275 50l-41 -186c-6 0.666992 -13.5 1.16699 -22.5 1.5s-19.5 0.5 -31.5 0.5c-97.333 0 -185.333 -13.167 -264 -39.5
s-145.834 -64 -201.501 -113s-98.5 -108.5 -128.5 -178.5s-45 -148.667 -45 -236c0 -236.667 154.667 -355 464 -355c144 0 292 23 444 69zM291.997 265l94 119l165 -119l-92 -121zM739.997 19l-91 -118l-161 114l91 123zM711.997 150l-161 115l90 119l156 -108z" />
    <glyph glyph-name="ddalarabic" unicode="&#x688;" horiz-adv-x="736" arabic-form="isolated" 
d="M734 331c0 -24 -1.99902 -44 -5.99902 -60s-13 -29.333 -27 -40s-34.667 -19.667 -62 -27s-64.333 -14.333 -111 -21c-41.333 -5.33301 -80.166 -9.66602 -116.499 -12.999s-70.5 -5 -102.5 -5c-68 0 -113 7 -135 21c-30.667 18.667 -46 60 -46 124
c0 14 1.66699 31.667 5 53s7.5 42 12.5 62s10.667 37 17 51s12.5 21 18.5 21c1.33301 0 2.33301 -0.333008 3 -1v-63c0 -44 4.33301 -68.333 13 -73c26.667 -15.333 73.667 -23 141 -23c31.333 0 64.166 1.66699 98.499 5s66.166 7.66602 95.499 12.999
s53.5 11.833 72.5 19.5s28.5 15.834 28.5 24.501c0 29.333 -19.333 97.666 -58 204.999c-20 56.667 -36.5 99.5 -49.5 128.5s-24.167 44.833 -33.5 47.5l95 197c11.333 -2.66699 37.333 -85.667 78 -249c46 -178.667 69 -311 69 -397zM631.001 1170
c0 -8 -2.66797 -13.168 -8.00098 -15.501s-11 -3.5 -17 -3.5h-370l-22 60c15.333 -3.33301 29.333 -5 42 -5c30.667 0 57.334 7.66699 80.001 23v270l-14 68l44 56l5 -67l30 -32l-26 -52v-220c53.333 55.333 101.666 83 144.999 83c10.667 0 21.167 -1.83301 31.5 -5.5
s19.833 -7.66699 28.5 -12s15.834 -8.83301 21.501 -13.5s9.16699 -8 10.5 -10c12.667 -13.333 19 -36.666 19 -69.999v-54zM599 1218c0 7.33301 -3.49805 14.334 -10.498 21.001s-15.833 12.667 -26.5 18s-22.5 9.66602 -35.5 12.999s-25.833 5 -38.5 5
c-6 0 -14 -2.33301 -24 -7s-20.333 -10.334 -31 -17.001s-20.334 -13.667 -29.001 -21s-14.667 -13.666 -18 -18.999c26.667 -2.66699 50.167 -4.5 70.5 -5.5s37.166 -1.5 50.499 -1.5c61.333 0 92 4.66699 92 14z" />
    <glyph glyph-name="rreharabic" unicode="&#x691;" horiz-adv-x="834" arabic-form="isolated" 
d="M767 269c0 -144.667 -57.335 -267.998 -172.002 -369.998c-98.667 -88 -194 -132 -286 -132c-116 0 -231 78.333 -345 235c8.66699 -10.667 23 -20.667 43 -30c22 -10 49.667 -19.667 83 -29c28.667 -8 55.334 -13.833 80.001 -17.5s47.334 -5.5 68.001 -5.5
c183.333 0 327.333 99 432 297c7.33301 14.667 11 29 11 43c0 77.333 -57.333 156 -172 236l74 161c27.333 -17.333 52.333 -39.833 75 -67.5s42 -58.834 58 -93.501s28.5 -71.334 37.5 -110.001s13.5 -77.667 13.5 -117zM630.998 880.002c0 -6 -2.16699 -11.333 -6.5 -16
s-10.5 -7 -18.5 -7h-370l-22 62c56.667 0 97.334 6 122.001 18v272l-14 68l44 54l5 -65l30 -33l-26 -52v-219c53.333 55.333 101.666 83 144.999 83c10 0 20.167 -1.83301 30.5 -5.5s19.833 -7.66699 28.5 -12s16 -8.83301 22 -13.5s9.66699 -8 11 -10
c12.667 -13.333 19 -37 19 -71v-53zM598.998 927.002c0 7.33301 -3.33105 14.335 -9.99805 21.002s-15.334 12.667 -26.001 18s-22.834 9.66602 -36.501 12.999s-27.167 5 -40.5 5c-6 0 -14 -2.33301 -24 -7s-20.333 -10.334 -31 -17.001s-20.167 -13.667 -28.5 -21
s-13.833 -14 -16.5 -20l104 -4c72.667 0 109 4 109 12zM-36 2.00391c-1.33301 1.33301 -2.33301 2.66602 -3 3.99902c1.33301 -1.33301 2.33301 -2.66602 3 -3.99902z" />
    <glyph glyph-name="jeharabic" unicode="&#x698;" horiz-adv-x="767" arabic-form="isolated" 
d="M767 269c0 -144.667 -57.335 -267.998 -172.002 -369.998c-98.667 -88 -194 -132 -286 -132c-116 0 -231 78.333 -345 235c8.66699 -10.667 23 -20.667 43 -30c22 -10 49.667 -19.667 83 -29c28.667 -8 55.334 -13.833 80.001 -17.5s47.334 -5.5 68.001 -5.5
c183.333 0 327.333 99 432 297c7.33301 14.667 11 29 11 43c0 77.333 -57.333 156 -172 236l74 161c27.333 -17.333 52.333 -39.833 75 -67.5s42 -58.834 58 -93.501s28.5 -71.334 37.5 -110.001s13.5 -77.667 13.5 -117zM181.998 952.002l91 121l165 -118l-93 -123z
M506.998 1211l-91 -118l-160 114l89 121zM598.998 841.002l-161 114l88 118l159 -107zM-36.002 2.00195c-1.33301 1.33301 -2.33301 2.66602 -3 3.99902c1.33301 -1.33301 2.33301 -2.66602 3 -3.99902z" />
    <glyph glyph-name="veharabic" unicode="&#x6a4;" horiz-adv-x="1473" arabic-form="isolated" 
d="M1458 449c0 -144.667 -17.668 -218.999 -53.001 -222.999c-120 -13.333 -244 -23.5 -372 -30.5s-261.333 -10.5 -400 -10.5c-321.333 0 -505.666 37 -552.999 111c-44 70 -66 138.333 -66 205c0 44 8.66699 85 26 123c5.33301 11.333 27 47.666 65 108.999
c-12 -94.667 -18 -148 -18 -160c0 -62 24.667 -112.667 74 -152c55.333 -43.333 231.333 -65 528 -65c68.667 0 172.334 3 311.001 9c174 7.33301 265 15.333 273 24l-161 74c-58.667 36.667 -88 83.334 -88 140.001c0 56 28 125.333 84 208c59.333 88 115.333 132 168 132
c66 0 115.667 -68.667 149 -206c11.333 -46.667 19.666 -93.834 24.999 -141.501s8 -96.5 8 -146.5zM1383 517.001c0 35.333 -17 86.333 -51 153c-37.333 73.333 -71.666 110 -102.999 110c-7.33301 0 -17.333 -4.83301 -30 -14.5s-25.334 -21.334 -38.001 -35.001
s-24 -27.667 -34 -42s-16.333 -26.166 -19 -35.499l272 -147c2 2 3 5.66699 3 11zM963.999 1147l93 121l166 -119l-92 -124zM1291 1404l-91 -118l-158 114l89 121zM1385 1034l-162 115l89 119l159 -109z" />
    <glyph glyph-name="kehheharabic" unicode="&#x6a9;" horiz-adv-x="1323" arabic-form="isolated" 
d="M1330 1484l-86.002 -203.002l-591 -242l50.5 -32.5l47.5 -33.5l192 -172.5l196 -190.5c99.333 -87.333 156.333 -170.666 171 -249.999c0 -15.333 -13.667 -55.333 -41 -120c-3.33301 -9.33301 -50.333 -14 -141 -14h-953c-34.667 0 -63 2 -85 6
s-39.167 11.167 -51.5 21.5s-20.666 24.166 -24.999 41.499s-6.5 39 -6.5 65c0 64.667 23.333 136.334 70 215.001c41.333 67.333 67 101 77 101h2l-6 -19c-2.66699 -8.66699 -5.66699 -19.334 -9 -32.001s-6.5 -26.167 -9.5 -40.5s-5.5 -28.666 -7.5 -42.999
s-3 -27.166 -3 -38.499c0 -77.333 25 -116 75 -116c44.667 0 100.167 0.166992 166.5 0.5s144.833 0.5 235.5 0.5l400 1c89.333 0 136.333 5 141 15v1c0 19.333 -67.333 94 -202 224c-134.667 130.667 -212 196 -232 196c-2.66699 -4.66699 -7.66699 -23.667 -15 -57
l-43.5 39c-19 16.667 -37.833 35 -56.5 55s-35 40.667 -49 62s-21 41.333 -21 60c0 44 20.333 96.333 61 157c22.667 34.667 272.334 149 749.001 343z" />
    <glyph glyph-name="gafarabic" unicode="&#x6af;" horiz-adv-x="1323" arabic-form="isolated" 
d="M1330 1484l-86.002 -203.002l-591 -242l50.5 -32.5l47.5 -33.5l192 -172.5l196 -190.5c99.333 -87.333 156.333 -170.666 171 -249.999c0 -15.333 -13.667 -55.333 -41 -120c-3.33301 -9.33301 -50.333 -14 -141 -14h-953c-34.667 0 -63 2 -85 6
s-39.167 11.167 -51.5 21.5s-20.666 24.166 -24.999 41.499s-6.5 39 -6.5 65c0 64.667 23.333 136.334 70 215.001c41.333 67.333 67 101 77 101h2l-6 -19c-2.66699 -8.66699 -5.66699 -19.334 -9 -32.001s-6.5 -26.167 -9.5 -40.5s-5.5 -28.666 -7.5 -42.999
s-3 -27.166 -3 -38.499c0 -77.333 25 -116 75 -116c44.667 0 100.167 0.166992 166.5 0.5s144.833 0.5 235.5 0.5l400 1c89.333 0 136.333 5 141 15v1c0 19.333 -67.333 94 -202 224c-134.667 130.667 -212 196 -232 196c-2.66699 -4.66699 -7.66699 -23.667 -15 -57
l-43.5 39c-19 16.667 -37.833 35 -56.5 55s-35 40.667 -49 62s-21 41.333 -21 60c0 44 20.333 96.333 61 157c22.667 34.667 272.334 149 749.001 343zM1170 1488l-639 -285l-22 45l639 286z" />
    <glyph glyph-name="noonghunnaarabic" unicode="&#x6ba;" horiz-adv-x="1003" arabic-form="isolated" 
d="M988 294l0.00292969 -64.9971c0 -128 -61.667 -234 -185 -318c-108.667 -74.667 -229.667 -113.334 -363 -116.001l-38 -2c-4.66699 0 -9.33398 -0.166992 -14.001 -0.5s-9.33398 -0.5 -14.001 -0.5c-240 0 -360 88.667 -360 266c0 66.667 21 147.334 63 242.001
c39.333 87.333 84 159.666 134 216.999c-12.667 -17.333 -25 -39.5 -37 -66.5s-22.667 -55.5 -32 -85.5s-16.833 -59.833 -22.5 -89.5s-8.5 -55.5 -8.5 -77.5c0 -164.667 106.667 -247 320 -247c60 0 122.5 9.5 187.5 28.5s127.833 46.5 188.5 82.5
c17.333 10 31 18.667 41 26s16.667 14.666 20 21.999c8.66699 19.333 13 43.666 13 72.999c0 26 -3.16699 54 -9.5 84s-14.833 59.333 -25.5 88s-23.334 55.167 -38.001 79.5s-30 43.5 -46 57.5l132 156c62.667 -82.667 94 -200.667 94 -354z" />
    <glyph glyph-name="hehdoachashmeearabic" unicode="&#x6be;" horiz-adv-x="978" arabic-form="isolated" 
d="M940 422c0 -14 -2 -33.1689 -6 -57.502s-9.16699 -48.333 -15.5 -72s-13.333 -44.167 -21 -61.5s-14.834 -26 -21.501 -26c-12 0 -64 13.667 -156 41c-90 26.667 -140.667 44.334 -152 53.001h-2c-80 -79.333 -233.667 -119 -461 -119
c-83.333 0 -141.666 7.33301 -174.999 22c210.667 32 363.334 94.333 458.001 187c-16 50 -24 85.333 -24 106c0 48 21.333 101.667 64 161c40.667 57.333 84 96.333 130 117l-84 63l45 108c24 56 43 84 57 84c43.333 0 101.666 -45.667 174.999 -137
c126.667 -155.333 189.667 -311.666 189 -468.999zM849 404.998c0 30.667 -22 89.001 -66 175.001c-46 89.333 -80 134 -102 134l-5 -3c0.666992 -5.33301 2 -14.833 4 -28.5l6.5 -44.5c2.33301 -16 4.33301 -31.667 6 -47s2.5 -27.333 2.5 -36
c0 -30.667 -8.33301 -72 -25 -124c0 -0.666992 6.16699 -3.33398 18.5 -8.00098s27.5 -10 45.5 -16s37 -11.5 57 -16.5s38 -7.83301 54 -8.5c2.66699 6 4 13.667 4 23zM626 491.999c0 15.333 -1.33105 32.334 -3.99805 51.001s-6.5 36.167 -11.5 52.5
s-10.5 30.166 -16.5 41.499s-12.667 17 -20 17c-16 0 -43 -20.333 -81 -61c-37.333 -40.667 -56 -68.667 -56 -84c0 -8 5.83301 -15.667 17.5 -23s25.667 -14 42 -20s33.166 -10.833 50.499 -14.5s31.666 -5.5 42.999 -5.5c24 0 36 15.333 36 46z" />
    <glyph glyph-name="hehhamzaabovearabic" unicode="&#x6c0;" horiz-adv-x="659" arabic-form="isolated" 
d="M570 449c0 -38.667 -5.66699 -74.332 -17 -106.999s-27.333 -61 -48 -85s-45.167 -42.667 -73.5 -56s-59.5 -20 -93.5 -20c-68.667 0 -149.667 18 -243 54c-50 20 -75 57.333 -75 112c0 34.667 16 90 48 166c32.667 80 62 127.333 88 142
c-17.333 25.333 -26 42.666 -26 51.999c0 39.333 44 99 132 179c0 -33.333 6.66699 -63.833 20 -91.5s33.333 -52.167 60 -73.5c1.33301 -0.666992 5.5 -3.66699 12.5 -9l26 -19.5l33 -24.5l33.5 -25l27.5 -21l15.5 -12c53.333 -42 80 -95.667 80 -161zM455 394.002
c0 15.333 -37 54 -111 116s-119.333 93 -136 93c-7.33301 0 -16 -7.5 -26 -22.5s-19.5 -32.333 -28.5 -52s-16.667 -39 -23 -58s-9.5 -32.5 -9.5 -40.5c0 -6.66699 1.33301 -12.667 4 -18c48.667 -43.333 113 -65 193 -65c91.333 0 137 15.667 137 47zM443 1272l-25 -82.002
c-68.667 -22 -118.667 -44 -150 -66l-123 -102c-2.66699 2.66699 -4 6.33398 -4 11.001c0 36 12.667 67.333 38 94c-48.667 32 -73 62.667 -73 92c0 27.333 6.33301 53.333 19 78s29.5 46.334 50.5 65.001s45.333 33.5 73 44.5s56.167 16.5 85.5 16.5c17.333 0 33 -2 47 -6
l-29 -82c-3.33301 9.33301 -23.333 14 -60 14c-16 0 -32 -2.66699 -48 -8s-30.333 -12.5 -43 -21.5s-22.834 -19.5 -30.501 -31.5s-11.5 -24.667 -11.5 -38c0 -8.66699 6.83301 -16.667 20.5 -24s31.834 -11 54.501 -11c8.66699 0 16 1 22 3z" />
    <glyph glyph-name="hehaltonearabic" unicode="&#x6c1;" horiz-adv-x="659" arabic-form="isolated" 
d="M570 449c0 -38.667 -5.66699 -74.332 -17 -106.999s-27.333 -61 -48 -85s-45.167 -42.667 -73.5 -56s-59.5 -20 -93.5 -20c-68.667 0 -149.667 18 -243 54c-50 20 -75 57.333 -75 112c0 34.667 16 90 48 166c32.667 80 62 127.333 88 142
c-17.333 25.333 -26 42.666 -26 51.999c0 39.333 44 99 132 179c0 -33.333 6.66699 -63.833 20 -91.5s33.333 -52.167 60 -73.5c1.33301 -0.666992 5.5 -3.66699 12.5 -9l26 -19.5l33 -24.5l33.5 -25l27.5 -21l15.5 -12c53.333 -42 80 -95.667 80 -161zM455 394.002
c0 15.333 -37 54 -111 116s-119.333 93 -136 93c-7.33301 0 -16 -7.5 -26 -22.5s-19.5 -32.333 -28.5 -52s-16.667 -39 -23 -58s-9.5 -32.5 -9.5 -40.5c0 -6.66699 1.33301 -12.667 4 -18c48.667 -43.333 113 -65 193 -65c91.333 0 137 15.667 137 47z" />
    <glyph glyph-name="kirghizu" unicode="&#x6c7;" horiz-adv-x="737" arabic-form="isolated" 
d="M737 383c0 -148.667 -34.6689 -278.334 -104.002 -389.001c-83.333 -128.667 -194.666 -193 -333.999 -193c-101.333 0 -182 24 -242 72c-26 20.667 -50.333 49.334 -73 86.001c-11.333 18 -22.5 37.5 -33.5 58.5s-21.167 43.833 -30.5 68.5c18 -32.667 65 -68 141 -106
c76.667 -38.667 134 -58 172 -58c45.333 0 89.333 8.33301 132 25c43.333 13.333 82 33.666 116 60.999c34 24.667 65.333 56.667 94 96c26 36 45.333 75 58 117h-12c-3.33301 0 -5.66602 -0.333008 -6.99902 -1s-3.33301 -1 -6 -1c-31.333 0 -64 7 -98 21
c-31.333 12 -59.333 29 -84 51s-43.667 48 -57 78c-14 27.333 -21 58 -21 92c0 54.667 24 116 72 184c49.333 76.667 99 115 149 115c14 0 29 -6.33301 45 -19c82 -57.333 123 -176.666 123 -357.999zM642.998 1008c-7.33301 2.66699 -14 4.66699 -20 6s-13 3.33301 -21 6
c-8.66699 3.33301 -17.334 6.33301 -26.001 9s-18.667 5.33398 -30 8.00098c-16 -18 -33.167 -35.167 -51.5 -51.5l-56.5 -49.5c-36.667 -28.667 -81 -59.334 -133 -92.001l-37 70h6c14 0 49 21.667 105 65c28.667 22 51.834 40.5 69.501 55.5s29.834 26.833 36.501 35.5
c-68 35.333 -102 74.666 -102 117.999c0 18 6 36 18 54c10.667 18.667 25.667 36.334 45 53.001c9.33301 8 18.833 15.5 28.5 22.5s20.167 13.167 31.5 18.5c17.333 10.667 35 16 53 16c34 0 57 -6 69 -18c12.667 -14 19 -38.667 19 -74c0 -40.667 -22 -94 -66 -160
c11.333 -4 23.666 -8 36.999 -12c8 -2.66699 16.167 -4.66699 24.5 -6s17.833 -3.33301 28.5 -6zM648.998 410c0 13.333 -3.33301 31.6709 -10 55.0039c-5.33301 19.333 -13.666 35.666 -24.999 48.999c-5.33301 6.66699 -11.333 13.167 -18 19.5s-13.667 12.166 -21 17.499
c-13.333 8 -29 12 -47 12c-10.667 0 -19.334 -2.66699 -26.001 -8c-11.333 -6.66699 -19.666 -14.334 -24.999 -23.001c-8 -8 -14 -17.333 -18 -28c-4 -10 -6 -20.333 -6 -31c0 -9.33301 5.33301 -19.666 16 -30.999l19.5 -15c6.33301 -4.66699 14.166 -9 23.499 -13
c8 -2.66699 16.5 -5.83398 25.5 -9.50098s18.167 -6.83398 27.5 -9.50098c20.667 -4 40 -6 58 -6c17.333 0 26 7 26 21zM556.998 1240c0 20 -9.66699 30 -29 30c-31.333 0 -47 -17.667 -47 -53c0 -26 15.667 -49.333 47 -70c19.333 37.333 29 68.333 29 93z" />
    <glyph glyph-name="kirghizyu" unicode="&#x6c9;" horiz-adv-x="737" arabic-form="isolated" 
d="M737 383c0 -148.667 -34.6689 -278.334 -104.002 -389.001c-83.333 -128.667 -194.666 -193 -333.999 -193c-101.333 0 -182 24 -242 72c-26 20.667 -50.333 49.334 -73 86.001c-11.333 18 -22.5 37.5 -33.5 58.5s-21.167 43.833 -30.5 68.5c18 -32.667 65 -68 141 -106
c76.667 -38.667 134 -58 172 -58c45.333 0 89.333 8.33301 132 25c43.333 13.333 82 33.666 116 60.999c34 24.667 65.333 56.667 94 96c26 36 45.333 75 58 117h-12c-3.33301 0 -5.66602 -0.333008 -6.99902 -1s-3.33301 -1 -6 -1c-31.333 0 -64 7 -98 21
c-31.333 12 -59.333 29 -84 51s-43.667 48 -57 78c-14 27.333 -21 58 -21 92c0 54.667 24 116 72 184c49.333 76.667 99 115 149 115c14 0 29 -6.33301 45 -19c82 -57.333 123 -176.666 123 -357.999zM753.998 896l-225.999 152l-223 -152h-61l227 248
c15.333 16 34.333 24 57 24c23.333 0 42.666 -8 57.999 -24l231 -248h-63zM648.999 410c0 13.333 -3.33301 31.6709 -10 55.0039c-5.33301 19.333 -13.666 35.666 -24.999 48.999c-5.33301 6.66699 -11.333 13.167 -18 19.5s-13.667 12.166 -21 17.499
c-13.333 8 -29 12 -47 12c-10.667 0 -19.334 -2.66699 -26.001 -8c-11.333 -6.66699 -19.666 -14.334 -24.999 -23.001c-8 -8 -14 -17.333 -18 -28c-4 -10 -6 -20.333 -6 -31c0 -9.33301 5.33301 -19.666 16 -30.999l19.5 -15c6.33301 -4.66699 14.166 -9 23.499 -13
c8 -2.66699 16.5 -5.83398 25.5 -9.50098s18.167 -6.83398 27.5 -9.50098c20.667 -4 40 -6 58 -6c17.333 0 26 7 26 21z" />
    <glyph glyph-name="dotlessyeharabic" unicode="&#x6cc;" horiz-adv-x="1204" arabic-form="isolated" 
d="M1192 694c0 -42 -22.6689 -97.333 -68.002 -166c-32 36.667 -59.333 55 -82 55c-48 0 -123.333 -27.333 -226 -82c-108.667 -56.667 -163 -104.334 -163 -143.001c0 -14.667 41 -29.667 123 -45c65.333 -11.333 116.833 -20.666 154.5 -27.999
s61.834 -12.666 72.501 -15.999c42 -11.333 72.333 -23.666 91 -36.999s28 -29 28 -47l-9 -145c-4 -70.667 -109.333 -141.667 -316 -213c-178.667 -62 -315 -93 -409 -93c-53.333 0 -102 7.83301 -146 23.5s-81.5 38.334 -112.5 68.001s-55 66 -72 109
s-25.5 91.833 -25.5 146.5c0 89.333 28.333 194.666 85 315.999c61.333 130.667 127 215 197 253c-38.667 -38.667 -78.667 -116.667 -120 -234c-19.333 -56 -34.166 -105.333 -44.499 -148s-15.5 -79.334 -15.5 -110.001c0 -160.667 102 -241 306 -241
c76 0 176.333 17 301 51c73.333 20.667 130.5 42.167 171.5 64.5s66.167 45.166 75.5 68.499c-158 38 -259 57 -303 57c-85.333 0 -128 33.333 -128 100c0 103.333 64.667 213 194 329c127.333 114 244 171 350 171c60.667 0 91 -21.333 91 -64z" />
    <glyph glyph-name="pashtoe" unicode="&#x6d0;" horiz-adv-x="1204" arabic-form="isolated" 
d="M1192 694c0 -42 -22.667 -97.332 -68 -165.999c-32.667 37.333 -60 56 -82 56c-24 0 -54.833 -6.83301 -92.5 -20.5s-82.5 -34.167 -134.5 -61.5c-108 -57.333 -162 -105.333 -162 -144c0 -14.667 41 -29.667 123 -45c32.667 -6.66699 61.667 -12 87 -16
s47.666 -8 66.999 -12c18.667 -2.66699 33.834 -5.5 45.501 -8.5s21.167 -5.83301 28.5 -8.5c42 -10.667 72 -23 90 -37c18.667 -12 28 -27.667 28 -47l-10 -143c-4 -72.667 -109 -143.667 -315 -213c-176.667 -62.667 -313.334 -94 -410.001 -94c-52 0 -100.333 8 -145 24
c-45.333 15.333 -83 38 -113 68c-31.333 28.667 -55.333 64.667 -72 108c-16 42.667 -24 92 -24 148c0 43.333 6.83301 91.333 20.5 144s34.834 109.667 63.501 171c61.333 131.333 126.666 215.333 195.999 252c-36.667 -35.333 -76 -113 -118 -233
c-11.333 -27.333 -20.333 -53.333 -27 -78s-12.667 -48 -18 -70c-11.333 -46 -17 -82.667 -17 -110c0 -161.333 102.333 -242 307 -242c38.667 0 82.834 4.5 132.501 13.5s105.834 21.5 168.501 37.5c71.333 19.333 128.666 41.333 171.999 66
c41.333 23.333 66 45.666 74 66.999c-154 38.667 -255 58 -303 58c-84.667 0 -127 33.333 -127 100c0 102.667 65 212.667 195 330c128 113.333 244.667 170 350 170c60 0 90 -21.333 90 -64v0z" />
    <glyph glyph-name="yehbarreearabic" unicode="&#x6d2;" horiz-adv-x="1098" arabic-form="isolated" 
d="M1200 -15l-68.999 -164h-854c-6.66699 54.667 -11.5 97.667 -14.5 129s-4.5 51.333 -4.5 60c0 68.667 27.333 140.334 82 215.001c54.667 74 115 121.667 181 143c38.667 12.667 115.334 19 230.001 19c41.333 0 83.333 19.333 126 58s74.334 58 95.001 58
c13.333 0 26.666 -3.33301 39.999 -10s25.166 -15.5 35.499 -26.5s18.833 -23.333 25.5 -37s10 -27.167 10 -40.5v-163c-44 82 -90.333 123 -139 123c-20.667 0 -46 -13 -76 -39c-29.333 -26.667 -57.333 -40.334 -84 -41.001c-62.667 -2 -110.834 -4.16699 -144.501 -6.5
s-53.5 -4.16602 -59.5 -5.49902c-48.667 -10.667 -105.667 -48.334 -171 -113.001c-54.667 -54.667 -82 -100 -82 -136c0 -17.333 49.667 -26 149 -26c49.333 0 88.5 0.5 117.5 1.5s42.833 1.5 41.5 1.5h565z" />
    <glyph glyph-name="yehbarreehamzaabovearabic" unicode="&#x6d3;" horiz-adv-x="1098" arabic-form="isolated" 
d="M1200 -15l-68.999 -164h-854c-6.66699 54.667 -11.5 97.667 -14.5 129s-4.5 51.333 -4.5 60c0 68.667 27.333 140.334 82 215.001c54.667 74 115 121.667 181 143c38.667 12.667 115.334 19 230.001 19c41.333 0 83.333 19.333 126 58s74.334 58 95.001 58
c13.333 0 26.666 -3.33301 39.999 -10s25.166 -15.5 35.499 -26.5s18.833 -23.333 25.5 -37s10 -27.167 10 -40.5v-163c-44 82 -90.333 123 -139 123c-20.667 0 -46 -13 -76 -39c-29.333 -26.667 -57.333 -40.334 -84 -41.001c-62.667 -2 -110.834 -4.16699 -144.501 -6.5
s-53.5 -4.16602 -59.5 -5.49902c-48.667 -10.667 -105.667 -48.334 -171 -113.001c-54.667 -54.667 -82 -100 -82 -136c0 -17.333 49.667 -26 149 -26c49.333 0 88.5 0.5 117.5 1.5s42.833 1.5 41.5 1.5h565zM556.001 707l-25 -82.002c-68.667 -22 -118.667 -44 -150 -66
l-123 -102c-2.66699 2.66699 -4 6.33398 -4 11.001c0 36 12.667 67.333 38 94c-48.667 32 -73 62.667 -73 92c0 27.333 6.33301 53.333 19 78s29.5 46.334 50.5 65.001s45.333 33.5 73 44.5s56.167 16.5 85.5 16.5c17.333 0 33 -2 47 -6l-29 -82
c-3.33301 9.33301 -23.333 14 -60 14c-16 0 -32 -2.66699 -48 -8s-30.333 -12.5 -43 -21.5s-22.834 -19.5 -30.501 -31.5s-11.5 -24.667 -11.5 -38c0 -8.66699 6.83301 -16.667 20.5 -24s31.834 -11 54.501 -11c8.66699 0 16 1 22 3z" />
    <glyph glyph-name="alefwaslafinalarabic" unicode="&#x671;" horiz-adv-x="551" arabic-form="final" 
d="M399 225c-51.333 0 -92.333 5.66699 -123 17c-25.333 10.667 -46.333 23.667 -63 39c-16.667 18.667 -27.667 41 -33 67c-6.66699 30 -10 67.667 -10 113v479l119 160v-639c0 -48 21 -72 63 -72h336v-164h-289zM476 1451c0 -56.667 -20.499 -106 -61.499 -148
s-89.5 -63 -145.5 -63c-17.333 0 -43.5 3.83301 -78.5 11.5s-60.833 11.5 -77.5 11.5c-18 0 -36.167 -7 -54.5 -21s-29.5 -29.667 -33.5 -47c-12 6 -18 17 -18 33c0 30 9.66699 60 29 90c21.333 32.667 46.333 49 75 49c18 0 31 -0.666992 39 -2
c95.333 120 172.666 180 231.999 180c62.667 0 94 -31.333 94 -94zM419.001 1400c0 14 -8.66699 27 -26 39s-33.333 18 -48 18c-24 0 -51.667 -11.667 -83 -35c-27.333 -20 -49 -41.667 -65 -65c24.667 -11.333 57 -17 97 -17c24 0 48.667 4.33301 74 13
c34 12 51 27.667 51 47z" />
    <glyph glyph-name="pehfinalarabic" unicode="&#x67e;" horiz-adv-x="1204" arabic-form="final" 
d="M1343 226h-211.997c-6.66699 -24.667 -95.334 -48.667 -266.001 -72c-136.667 -18 -241 -27 -313 -27c-82 0 -155.667 6.16699 -221 18.5s-120.833 30.333 -166.5 54s-80.834 53 -105.501 88s-37 75.167 -37 120.5c0 92 40.333 178 121 258
c-24.667 -78 -37 -133 -37 -165c0 -93.333 64.333 -155 193 -185c32 -7.33301 73 -12.833 123 -16.5s110 -5.5 180 -5.5c39.333 0 82.166 1.33301 128.499 4s96.833 6.66699 151.5 12c150.667 14.667 226 36.667 226 66c0 33.333 -28 85.333 -84 156l78 171
c60.667 -73.333 91 -164 91 -272v-21c0 -6.66699 -0.333008 -13.667 -1 -21h151v-163zM343.003 -167l92 120l166 -119l-92 -123zM791.003 -412l-91 -118l-160 113l88 123zM762.003 -281l-161 115l89 119l157 -109z" />
    <glyph glyph-name="pehinitialarabic" unicode="&#x67e;" horiz-adv-x="558" arabic-form="initial" 
d="M552 373c0 -98 -13.668 -146.999 -41.001 -146.999h-525v163h436c8.66699 0 13 7.66699 13 23c0 11.333 -3.5 27.666 -10.5 48.999s-15.667 42.5 -26 63.5s-21 39.333 -32 55s-20.5 23.5 -28.5 23.5l75 177c34.667 -15.333 67.334 -77 98.001 -185
c27.333 -96 41 -170 41 -222zM21.999 -148.999l94 121l165 -117l-92 -124zM469.999 -390.999l-91 -119l-161 114l91 122zM439.999 -258.999l-159 114l87 117l158 -107z" />
    <glyph glyph-name="pehmedialarabic" unicode="&#x67e;" horiz-adv-x="558" arabic-form="medial" 
d="M697 226l-711 0.000976562v163h436c8.66699 0 13 7.66699 13 23c0 11.333 -3.5 27.666 -10.5 48.999s-15.667 42.5 -26 63.5s-21 39.333 -32 55s-20.5 23.5 -28.5 23.5l78 180c37.333 -42.667 69.333 -104.667 96 -186c26.667 -78 40 -147.333 40 -208h145v-163z
M22 -148.999l94 121l165 -117l-92 -124zM470 -390.999l-91 -119l-161 114l91 122zM440 -258.999l-159 114l87 117l158 -107z" />
    <glyph glyph-name="ttehfinalarabic" unicode="&#x679;" horiz-adv-x="1203" arabic-form="final" 
d="M1343 226h-211.997c-6.66699 -24.667 -95.334 -48.667 -266.001 -72c-136.667 -18 -241 -27 -313 -27c-82 0 -155.667 6.16699 -221 18.5s-120.833 30.333 -166.5 54s-80.834 53 -105.501 88s-37 75.167 -37 120.5c0 92 40.333 178 121 258
c-24.667 -78 -37 -133 -37 -165c0 -93.333 64.333 -155 193 -185c32 -7.33301 73 -12.833 123 -16.5s110 -5.5 180 -5.5c39.333 0 82.166 1.33301 128.499 4s96.833 6.66699 151.5 12c150.667 14.667 226 36.667 226 66c0 33.333 -28 85.333 -84 156l78 171
c60.667 -73.333 91 -164 91 -272v-21c0 -6.66699 -0.333008 -13.667 -1 -21h151v-163zM799.003 700c0 -12.667 -8.33203 -19.001 -24.999 -19.001h-369l-22 60c13.333 -3.33301 25.666 -5 36.999 -5c36.667 0 64.667 7.66699 84 23v273l-14 65l43 56l4 -65l33 -31l-28 -55
v-219c53.333 57.333 102.333 86 147 86c9.33301 0 19 -2 29 -6s19.333 -8.5 28 -13.5s16 -9.83301 22 -14.5s9.66699 -8 11 -10c13.333 -15.333 20 -38.666 20 -69.999v-55zM767.004 747.999c0 7.33301 -3.33301 14.332 -10 20.999s-15.167 12.667 -25.5 18
s-22 9.66602 -35 12.999s-25.5 5 -37.5 5c-6.66699 0 -15.167 -2.16699 -25.5 -6.5s-20.833 -9.66602 -31.5 -15.999s-20.5 -13.166 -29.5 -20.499s-15.167 -14.333 -18.5 -21c49.333 -4 84.333 -6 105 -6c32 0 58 1.33301 78 4s30 5.66699 30 9z" />
    <glyph glyph-name="ttehinitialarabic" unicode="&#x679;" horiz-adv-x="558" arabic-form="initial" 
d="M552 373c0 -98 -13.668 -146.999 -41.001 -146.999h-525v163h436c8.66699 0 13 7.66699 13 23c0 11.333 -3.5 27.666 -10.5 48.999s-15.667 42.5 -26 63.5s-21 39.333 -32 55s-20.5 23.5 -28.5 23.5l75 177c34.667 -15.333 67.334 -77 98.001 -185
c27.333 -96 41 -170 41 -222zM549.999 1032c0 -6.66699 -2.16602 -12.167 -6.49902 -16.5s-10.166 -6.5 -17.499 -6.5h-371l-20 62c56 0 96 6 120 18v272l-13 68l43 54l4 -65l33 -33l-28 -52v-219c53.333 55.333 101.666 83 144.999 83c10 0 20.167 -1.83301 30.5 -5.5
s19.666 -7.66699 27.999 -12s15.5 -8.83301 21.5 -13.5s10 -8 12 -10c12.667 -13.333 19 -37 19 -71v-53zM519 1079c0 7.33301 -3.33301 14.334 -10 21.001s-15.5 12.667 -26.5 18s-23.167 9.66602 -36.5 12.999s-26.666 5 -39.999 5c-6 0 -14.167 -2.33301 -24.5 -7
s-20.833 -10.167 -31.5 -16.5s-20.334 -13.333 -29.001 -21s-14 -14.5 -16 -20.5l104 -4c73.333 0 110 4 110 12v0z" />
    </font>
</defs>
</svg>
